<?xml version="1.0" standalone="no"?>
<!DOCTYPE svg PUBLIC "-//W3C//DTD SVG 20010904//EN"
 "http://www.w3.org/TR/2001/REC-SVG-20010904/DTD/svg10.dtd">
<svg version="1.0" xmlns="http://www.w3.org/2000/svg"
 width="128.000000pt" height="128.000000pt" viewBox="0 0 128.000000 128.000000"
 preserveAspectRatio="xMidYMid meet">

<g transform="translate(0.000000,128.000000) scale(0.100000,-0.100000)"
fill="#000000" stroke="none">
<path d="M521 1184 c-184 -49 -325 -206 -355 -395 -8 -56 -14 -69 -29 -69 -30
0 -72 -27 -85 -55 -16 -34 -16 -176 0 -210 13 -29 55 -55 88 -55 11 0 29 9 40
20 18 18 20 33 20 180 0 87 5 183 11 212 48 225 274 379 499 340 177 -30 309
-153 355 -329 10 -39 15 -108 15 -220 0 -150 2 -165 20 -183 11 -11 29 -20 40
-20 33 0 75 26 88 55 17 37 15 179 -2 214 -15 28 -53 51 -84 51 -14 0 -20 14
-28 69 -45 280 -325 467 -593 395z m-366 -624 c0 -100 -2 -115 -17 -118 -9 -2
-26 6 -37 17 -18 18 -21 34 -21 101 0 67 3 83 21 101 11 11 28 19 37 17 15 -3
17 -18 17 -118z m1025 100 c17 -17 20 -33 20 -100 0 -67 -3 -83 -21 -101 -11
-11 -28 -19 -37 -17 -14 3 -17 19 -20 107 -1 58 0 111 2 118 8 19 33 16 56 -7z"/>
<path d="M355 911 c-11 -5 -31 -21 -45 -36 l-25 -27 0 -229 0 -229 33 -32 c29
-30 38 -33 95 -33 48 0 62 3 62 15 0 11 -15 16 -59 20 -95 9 -96 11 -96 262 0
208 0 209 25 233 l24 25 271 0 271 0 24 -25 c25 -24 25 -24 25 -235 0 -278 15
-260 -219 -260 l-171 0 -46 -69 c-42 -63 -49 -91 -24 -91 5 0 27 27 50 59 l40
60 170 3 170 3 32 33 33 32 0 230 0 230 -33 32 -32 33 -278 2 c-152 1 -286 -2
-297 -6z"/>
<path d="M464 627 c-9 -25 0 -62 16 -62 10 0 15 10 15 34 0 36 -21 54 -31 28z"/>
<path d="M784 627 c-9 -25 0 -62 16 -62 10 0 15 10 15 34 0 36 -21 54 -31 28z"/>
<path d="M565 550 c-10 -17 22 -59 50 -66 14 -3 36 -3 50 0 28 7 60 49 50 66
-3 5 -37 10 -75 10 -38 0 -72 -5 -75 -10z"/>
<path d="M1087 373 c-2 -4 -8 -26 -11 -48 -10 -53 -46 -107 -92 -136 -31 -19
-56 -24 -130 -27 -83 -4 -94 -2 -113 17 -30 30 -132 30 -161 1 -25 -25 -25
-55 0 -80 29 -29 131 -29 160 0 17 17 33 20 96 20 107 0 150 15 210 75 50 50
81 118 72 160 -3 20 -23 31 -31 18z m-372 -233 c0 -11 -13 -16 -49 -18 -50 -3
-74 7 -61 28 11 17 110 9 110 -10z"/>
</g>
</svg>
