<?xml version="1.0" standalone="no"?>
<!DOCTYPE svg PUBLIC "-//W3C//DTD SVG 20010904//EN"
 "http://www.w3.org/TR/2001/REC-SVG-20010904/DTD/svg10.dtd">
<svg version="1.0" xmlns="http://www.w3.org/2000/svg"
 width="64.000000pt" height="64.000000pt" viewBox="0 0 64.000000 64.000000"
 preserveAspectRatio="xMidYMid meet">

<g transform="translate(0.000000,64.000000) scale(0.100000,-0.100000)"
fill="#000000" stroke="none">
<path d="M18 612 c-20 -50 -22 -116 -4 -131 22 -19 23 -169 1 -177 -19 -8 -19
-53 0 -60 22 -9 22 -179 -1 -188 -9 -3 -14 -15 -12 -28 l3 -23 315 0 315 0 3
23 c2 13 -3 25 -12 28 -11 4 -16 19 -16 46 0 23 -4 37 -10 33 -6 -3 -10 -22
-10 -41 l0 -34 -270 0 -270 0 0 90 0 90 270 0 270 0 0 -34 c0 -19 5 -38 10
-41 6 -4 10 10 10 33 0 26 5 42 15 46 19 7 19 52 0 60 -22 8 -21 158 1 177 18
15 16 81 -5 132 l-11 27 -290 -1 -291 0 -11 -27z m82 -97 c0 -16 -6 -25 -15
-25 -9 0 -15 9 -15 25 0 16 6 25 15 25 9 0 15 -9 15 -25z m110 6 c0 -11 -5
-23 -11 -27 -15 -9 -33 12 -26 30 9 23 37 20 37 -3z m100 -6 c0 -16 -6 -25
-15 -25 -9 0 -15 9 -15 25 0 16 6 25 15 25 9 0 15 -9 15 -25z m100 -1 c0 -31
-23 -28 -28 4 -2 15 2 22 12 22 11 0 16 -9 16 -26z m108 4 c-4 -27 -23 -34
-32 -13 -8 21 1 35 20 35 10 0 14 -8 12 -22z m102 -3 c0 -16 -6 -25 -15 -25
-9 0 -15 9 -15 25 0 16 6 25 15 25 9 0 15 -9 15 -25z m-80 -128 c0 -67 -3 -88
-12 -85 -8 3 -14 28 -16 67 l-3 62 -62 -3 c-62 -3 -62 -3 -65 -35 -4 -38 -12
-41 -30 -13 -7 11 -17 20 -23 20 -20 0 -59 -49 -59 -75 0 -16 -6 -25 -15 -25
-8 0 -15 9 -15 19 0 24 -14 34 -49 35 -37 2 -61 -12 -61 -34 0 -11 -7 -20 -15
-20 -12 0 -15 16 -15 88 l0 87 220 0 220 0 0 -88z m-50 -2 c0 -23 -4 -25 -45
-25 -41 0 -45 2 -45 25 0 23 4 25 45 25 41 0 45 -2 45 -25z m-150 -15 c0 -5
-7 -10 -16 -10 -8 0 -12 5 -9 10 3 6 10 10 16 10 5 0 9 -4 9 -10z m40 -44 c0
-17 -22 -26 -61 -26 -22 0 -29 5 -29 20 0 17 7 20 45 20 32 0 45 -4 45 -14z
m230 -56 c-21 -13 -590 -13 -590 0 0 6 107 10 303 10 198 0 297 -4 287 -10z
m10 -240 c0 -6 -107 -10 -300 -10 -193 0 -300 4 -300 10 0 6 107 10 300 10
193 0 300 -4 300 -10z"/>
<path d="M247 193 c-16 -15 -6 -62 15 -77 54 -38 138 -7 138 49 0 33 -23 42
-55 21 -23 -15 -28 -15 -47 -1 -24 16 -41 19 -51 8z m60 -49 c8 -22 -2 -27
-26 -14 -12 6 -21 20 -21 31 0 17 3 18 21 9 11 -6 23 -18 26 -26z m73 16 c0
-18 -36 -47 -47 -37 -10 10 8 46 25 50 9 3 18 5 20 6 1 0 2 -8 2 -19z"/>
</g>
</svg>
