<?xml version="1.0" standalone="no"?>
<!DOCTYPE svg PUBLIC "-//W3C//DTD SVG 20010904//EN"
 "http://www.w3.org/TR/2001/REC-SVG-20010904/DTD/svg10.dtd">
<svg version="1.0" xmlns="http://www.w3.org/2000/svg"
 width="128.000000pt" height="128.000000pt" viewBox="0 0 128.000000 128.000000"
 preserveAspectRatio="xMidYMid meet">

<g transform="translate(0.000000,128.000000) scale(0.100000,-0.100000)"
fill="#000000" stroke="none">
<path d="M312 998 c-156 -156 -290 -296 -299 -312 -32 -61 9 -139 83 -157 l44
-11 0 -208 c0 -199 1 -208 23 -241 37 -56 76 -69 205 -69 62 0 122 5 133 10
18 10 19 23 19 184 0 212 -3 206 121 206 128 0 123 7 127 -201 2 -102 8 -179
14 -186 7 -9 44 -13 124 -13 137 0 183 15 216 69 22 34 23 48 26 243 l4 208
38 10 c75 20 112 100 76 168 -18 32 -542 555 -573 571 -12 6 -39 11 -59 11
-37 0 -51 -12 -322 -282z m620 -65 c153 -153 278 -283 278 -290 0 -24 -32 -43
-74 -43 -23 0 -47 -5 -54 -12 -9 -9 -12 -76 -12 -238 0 -284 7 -270 -131 -270
l-99 0 0 149 c0 137 -2 151 -23 182 -35 52 -78 69 -177 69 -101 0 -144 -18
-175 -70 -17 -30 -20 -56 -23 -183 l-4 -147 -91 0 c-51 0 -97 4 -104 8 -27 17
-33 69 -33 282 0 242 3 230 -69 230 -42 0 -61 14 -61 45 0 24 537 565 560 565
8 0 140 -125 292 -277z"/>
</g>
</svg>
