<?xml version="1.0" standalone="no"?>
<!DOCTYPE svg PUBLIC "-//W3C//DTD SVG 20010904//EN"
 "http://www.w3.org/TR/2001/REC-SVG-20010904/DTD/svg10.dtd">
<svg version="1.0" xmlns="http://www.w3.org/2000/svg"
 width="64.000000pt" height="64.000000pt" viewBox="0 0 64.000000 64.000000"
 preserveAspectRatio="xMidYMid meet">

<g transform="translate(0.000000,64.000000) scale(0.100000,-0.100000)"
fill="#000000" stroke="none">
<path d="M169 621 l-24 -19 0 -282 0 -282 24 -19 c20 -16 40 -19 150 -19 187
0 171 -30 171 320 0 350 16 320 -171 320 -110 0 -130 -3 -150 -19z m286 -301
l0 -285 -130 -3 c-113 -2 -131 0 -142 15 -17 22 -19 514 -2 544 9 18 20 19
142 17 l132 -3 0 -285z"/>
<path d="M262 568 c6 -16 108 -18 108 -3 0 6 -25 11 -56 13 -43 2 -55 0 -52
-10z"/>
<path d="M300 105 c-7 -8 -10 -22 -6 -30 7 -19 45 -19 52 0 6 15 -11 45 -26
45 -4 0 -13 -7 -20 -15z"/>
</g>
</svg>
