<?xml version="1.0" standalone="no"?>
<!DOCTYPE svg PUBLIC "-//W3C//DTD SVG 20010904//EN"
 "http://www.w3.org/TR/2001/REC-SVG-20010904/DTD/svg10.dtd">
<svg version="1.0" xmlns="http://www.w3.org/2000/svg"
 width="128.000000pt" height="128.000000pt" viewBox="0 0 128.000000 128.000000"
 preserveAspectRatio="xMidYMid meet">

<g transform="translate(0.000000,128.000000) scale(0.100000,-0.100000)"
fill="#000000" stroke="none">
<path d="M715 1106 c-93 -43 -147 -127 -148 -231 -1 -74 26 -136 79 -187 52
-49 106 -70 179 -70 212 -1 331 244 202 414 -71 93 -204 125 -312 74z m224
-44 c130 -80 143 -263 26 -360 -87 -71 -205 -68 -287 6 -105 94 -104 244 2
334 75 65 175 73 259 20z"/>
<path d="M810 1042 c0 -10 -13 -28 -30 -40 -16 -12 -32 -33 -35 -45 -9 -33 11
-75 40 -89 21 -9 25 -18 25 -55 0 -50 -13 -56 -29 -13 -5 17 -14 30 -20 30
-34 0 -15 -69 24 -90 13 -7 25 -22 27 -34 4 -26 21 -24 28 3 3 11 17 29 33 41
21 17 27 30 27 60 0 32 -6 44 -30 62 -25 18 -30 29 -30 65 0 47 14 50 30 7 12
-32 30 -31 30 2 0 16 -12 37 -30 54 -16 15 -30 35 -30 44 0 9 -7 16 -15 16 -8
0 -15 -8 -15 -18z m0 -108 c0 -24 -4 -34 -12 -32 -24 8 -22 68 2 68 5 0 10
-16 10 -36z m60 -124 c0 -10 -7 -23 -15 -30 -13 -11 -15 -7 -15 30 0 37 2 41
15 30 8 -7 15 -20 15 -30z"/>
<path d="M998 515 c-88 -46 -128 -56 -128 -32 0 8 -12 24 -26 38 -24 22 -34
24 -158 27 l-132 3 -38 -41 -37 -41 -182 -2 c-154 -2 -182 -4 -182 -17 0 -12
20 -16 113 -18 l112 -3 0 -124 0 -124 -110 -3 c-65 -2 -110 -7 -110 -13 0 -6
68 -11 180 -13 l180 -2 0 50 0 50 58 1 c31 0 120 4 197 8 176 10 193 19 335
157 90 89 103 106 94 121 -21 34 -73 28 -166 -22z m42 -80 c-120 -121 -148
-133 -330 -140 -80 -3 -164 -8 -187 -11 l-43 -5 0 66 c0 64 2 70 41 116 l41
49 121 0 c98 0 124 -3 139 -17 10 -9 18 -20 18 -24 0 -4 -35 -15 -77 -25 -85
-18 -113 -29 -113 -44 0 -15 37 -12 120 10 41 11 91 20 110 20 22 0 64 16 115
45 44 24 91 45 105 45 21 0 14 -11 -60 -85z m-600 -130 l0 -125 -30 0 -30 0 0
125 0 125 30 0 30 0 0 -125z"/>
</g>
</svg>
