<?xml version="1.0" encoding="UTF-8"?>
<!DOCTYPE svg PUBLIC "-//W3C//DTD SVG 1.1//EN" "http://www.w3.org/Graphics/SVG/1.1/DTD/svg11.dtd">
<svg xmlns="http://www.w3.org/2000/svg" version="1.1" width="602px" height="602px" style="shape-rendering:geometricPrecision; text-rendering:geometricPrecision; image-rendering:optimizeQuality; fill-rule:evenodd; clip-rule:evenodd" xmlns:xlink="http://www.w3.org/1999/xlink">
<g><path style="opacity:0.996" fill="#173a67" d="M 312.5,581.5 C 347.135,540.311 359.968,492.977 351,439.5C 312.789,436.382 275.956,427.549 240.5,413C 230.673,408.836 221.173,404.003 212,398.5C 218.064,426.296 230.731,450.629 250,471.5C 276.888,493.605 295.554,521.272 306,554.5C 308.756,563.292 310.256,572.292 310.5,581.5C 217.929,582.785 141.763,548.452 82,478.5C 22.817,401.588 5.48363,315.921 30,221.5C 37.4701,195.899 48.3035,171.899 62.5,149.5C 82.5756,171.942 98.4089,197.275 110,225.5C 135.542,314.042 192.375,371.875 280.5,399C 342.209,415.446 403.542,414.112 464.5,395C 437.804,379.959 412.47,362.959 388.5,344C 367.948,326.46 352.448,305.294 342,280.5C 311.536,183.702 247.702,120.868 150.5,92C 139.796,89.3595 129.129,87.1929 118.5,85.5C 181.758,33.3391 254.424,11.8391 336.5,21C 419.094,33.1931 484.594,73.0264 533,140.5C 584.561,220.106 595.561,305.106 566,395.5C 526.573,495.645 454.073,556.479 348.5,578C 336.579,580.025 324.579,581.192 312.5,581.5 Z"/></g>
<g><path style="opacity:1" fill="#cda430" d="M 118.5,85.5 C 129.129,87.1929 139.796,89.3595 150.5,92C 247.702,120.868 311.536,183.702 342,280.5C 352.448,305.294 367.948,326.46 388.5,344C 412.47,362.959 437.804,379.959 464.5,395C 403.542,414.112 342.209,415.446 280.5,399C 192.375,371.875 135.542,314.042 110,225.5C 98.4089,197.275 82.5756,171.942 62.5,149.5C 43.9742,129.084 22.9742,111.751 -0.5,97.5C -0.5,96.8333 -0.5,96.1667 -0.5,95.5C 38.4442,83.639 78.1109,80.3057 118.5,85.5 Z"/></g>
<g><path style="opacity:1" fill="#fefefe" d="M 474.5,121.5 C 489.26,120.949 503.927,121.782 518.5,124C 486.176,151.138 466.676,185.638 460,227.5C 451.672,265.201 432.505,295.868 402.5,319.5C 388.483,306.485 377.65,291.152 370,273.5C 363.161,252.148 354.661,231.481 344.5,211.5C 372.421,159.208 415.755,129.208 474.5,121.5 Z"/></g>
<g><path style="opacity:1" fill="#cda430" d="M 312.5,581.5 C 311.604,582.506 310.938,582.506 310.5,581.5C 310.256,572.292 308.756,563.292 306,554.5C 295.554,521.272 276.888,493.605 250,471.5C 230.731,450.629 218.064,426.296 212,398.5C 221.173,404.003 230.673,408.836 240.5,413C 275.956,427.549 312.789,436.382 351,439.5C 359.968,492.977 347.135,540.311 312.5,581.5 Z"/></g>
</svg>
