<?xml version="1.0" encoding="UTF-8"?>
<svg version="1.1" xmlns="http://www.w3.org/2000/svg" width="1506" height="1433">
<path d="M0 0 C0.66328308 0.00026688 1.32656616 0.00053375 2.00994873 0.00080872 C22.7024681 0.01124941 43.26076072 0.23861367 63.875 2.1875 C64.55411438 2.25066406 65.23322876 2.31382813 65.93292236 2.37890625 C125.66857371 7.96580461 184.93218467 18.86164719 241.8359375 38.15869141 C245.15605743 39.28264589 248.48421414 40.38094574 251.8125 41.48046875 C269.17446678 47.2779087 286.06214785 53.96088138 302.875 61.1875 C303.95233398 61.64769531 305.02966797 62.10789063 306.13964844 62.58203125 C330.31510697 72.93548279 353.98174519 84.23282797 376.875 97.1875 C377.89416504 97.76226074 378.91333008 98.33702148 379.96337891 98.92919922 C402.56243616 111.71094295 424.65676086 125.21345907 445.875 140.1875 C446.60847656 140.70489746 447.34195313 141.22229492 448.09765625 141.75537109 C465.66787452 154.20094237 482.88944344 167.17257758 499.3125 181.1015625 C499.90417969 181.60324951 500.49585938 182.10493652 501.10546875 182.62182617 C502.25576341 183.59897356 503.40430277 184.57819237 504.55078125 185.55981445 C506.92936187 187.58832171 509.26966649 189.45061099 511.875 191.1875 C511.875 191.8475 511.875 192.5075 511.875 193.1875 C512.41898438 193.41308594 512.96296875 193.63867188 513.5234375 193.87109375 C516.58225752 195.58342323 518.97104395 197.85755705 521.5 200.25 C522.57245851 201.25049133 523.64538192 202.25048455 524.71875 203.25 C525.25113281 203.74757812 525.78351562 204.24515625 526.33203125 204.7578125 C528.52452461 206.789338 530.76293791 208.76779308 533 210.75 C537.38839023 214.67831706 541.53828952 218.80618468 545.6484375 223.0234375 C547.7946556 225.21194851 547.7946556 225.21194851 550.1640625 226.8515625 C550.72867188 227.29242188 551.29328125 227.73328125 551.875 228.1875 C551.875 228.8475 551.875 229.5075 551.875 230.1875 C552.865 230.5175 553.855 230.8475 554.875 231.1875 C556.27734375 232.61328125 556.27734375 232.61328125 557.8125 234.5 C560.99345568 238.26176712 564.36909282 241.73422756 567.875 245.1875 C571.78107389 249.04982011 575.54636608 252.95495433 579.109375 257.140625 C581.2693342 259.64464849 583.50987993 262.06747698 585.75 264.5 C589.84380209 268.98898057 593.72969667 273.59993476 597.54296875 278.328125 C599.57963194 280.82534017 601.65785553 283.27940559 603.75952148 285.72192383 C615.05163079 298.87552514 625.24527111 312.88970667 635.30615234 326.99511719 C636.80513142 329.0898623 638.31697776 331.17467718 639.83203125 333.2578125 C659.18456164 360.03642688 675.35651275 389.06991735 690.875 418.1875 C691.78114024 419.87505894 692.68738506 421.56256173 693.59375 423.25 C710.56269736 454.98044702 722.81621871 488.4211899 735.13769531 522.15478516 C746.60478403 553.61558477 746.60478403 553.61558477 759.375 584.5625 C759.64602539 585.18294189 759.91705078 585.80338379 760.19628906 586.44262695 C771.18218067 611.55550953 783.93032056 635.16815021 800.37011719 657.15625 C802.26346116 659.71183434 804.0992166 662.30525136 805.93115234 664.9050293 C810.35865261 671.18664208 815.00040516 677.24568618 819.875 683.1875 C820.55949219 684.04601562 821.24398438 684.90453125 821.94921875 685.7890625 C826.95155941 692.02178139 832.22773761 697.92531748 837.6875 703.75390625 C840.2001463 706.43761941 842.64660816 709.17489017 845.08984375 711.921875 C850.02871307 717.42082762 855.20072181 722.66097392 860.4375 727.875 C861.33146484 728.77283203 862.22542969 729.67066406 863.14648438 730.59570312 C867.68006256 735.12264842 872.26794738 739.51516581 877.13012695 743.68774414 C879.53575943 745.75543692 881.85761912 747.91016836 884.1875 750.0625 C888.62131311 754.10152153 893.15554584 757.96256878 897.82421875 761.7265625 C900.04788674 763.52030236 902.25698478 765.32622383 904.45703125 767.1484375 C913.99417093 775.01990184 923.81462864 782.43425052 933.82177734 789.69677734 C935.52681057 790.9347004 937.22693526 792.1793808 938.92578125 793.42578125 C941.56557335 795.36056059 944.21724571 797.27747046 946.875 799.1875 C947.42639648 799.58517578 947.97779297 799.98285156 948.54589844 800.39257812 C975.24728386 819.60612195 1003.06072871 837.21715206 1031.06445312 854.45410156 C1034.03107034 856.28375603 1036.99232809 858.121881 1039.953125 859.9609375 C1052.77850128 867.91119378 1065.69417835 875.67517312 1078.7421875 883.25292969 C1088.60727037 888.99072675 1098.40430902 894.81436915 1107.875 901.1875 C1106.875 903.1875 1106.875 903.1875 1104.28759766 904.18969727 C1103.13308105 904.54088623 1101.97856445 904.8920752 1100.7890625 905.25390625 C1100.1540683 905.44847412 1099.5190741 905.64304199 1098.86483765 905.84350586 C1096.74598272 906.48856736 1094.62346431 907.12028807 1092.5 907.75 C1091.39591797 908.08038773 1091.39591797 908.08038773 1090.26953125 908.41744995 C1005.64597808 933.69823578 917.73434603 947.41482677 799.875 948.1875 C798.67037109 948.17493164 797.46574219 948.16236328 796.22460938 948.14941406 C707.07754202 946.89346055 616.18920922 930.39023396 359.875 814.1875 C358.87364014 813.51364258 358.87364014 813.51364258 357.85205078 812.82617188 C349.77386458 807.37741688 341.8840388 801.78230852 334.2109375 795.7734375 C331.84779155 793.92691925 329.45533742 792.12798761 327.0390625 790.3515625 C318.82323815 784.30548404 311.00355358 777.97991891 303.35546875 771.23046875 C300.26034499 768.50298136 297.09079271 765.8965408 293.875 763.3125 C290.24469224 760.37393478 286.89009228 757.3356708 283.65696716 753.96852112 C281.87938093 752.19187861 280.03481433 750.55875288 278.12524414 748.92553711 C274.10952319 745.43443816 270.31386857 741.77154457 266.55859375 738.00390625 C265.89843765 737.34470688 265.23828156 736.68550751 264.55812073 736.0063324 C263.17464494 734.62353165 261.79240917 733.23948924 260.41137695 731.85424805 C258.31768331 729.75519657 256.21870126 727.6615406 254.11914062 725.56835938 C252.76530429 724.21386214 251.41177825 722.85905469 250.05859375 721.50390625 C249.44173203 720.88906876 248.8248703 720.27423126 248.1893158 719.64076233 C236.43976672 707.82889305 236.43976672 707.82889305 233.875 702.1875 C233.215 702.1875 232.555 702.1875 231.875 702.1875 C230.52117851 700.70011765 229.24360114 699.14319449 228 697.5625 C224.94003593 693.73021273 221.84075394 689.96489309 218.61523438 686.27124023 C211.90873258 678.58139651 205.66370429 670.59156184 199.55029297 662.42480469 C198.43545928 660.93597695 197.31730171 659.44963224 196.19580078 657.96582031 C171.57659888 625.38179148 149.45506464 590.08822974 131.875 553.1875 C131.41689941 552.23939453 130.95879883 551.29128906 130.48681641 550.31445312 C118.25225265 524.93154077 107.96971873 499.01739463 99.19934082 472.24685669 C85.42321539 430.20789728 68.7196864 389.71925768 48.875 350.1875 C48.06119873 348.56400635 48.06119873 348.56400635 47.23095703 346.90771484 C27.32424022 307.44152811 3.00399494 270.18939638 -23.72851562 235.02490234 C-25.02604815 233.31769434 -26.31804282 231.60643015 -27.609375 229.89453125 C-42.92685092 209.74654414 -59.24121651 188.90908288 -77.80615234 171.62207031 C-79.125 170.1875 -79.125 170.1875 -79.125 168.1875 C-80.115 167.8575 -81.105 167.5275 -82.125 167.1875 C-83.59765625 165.65625 -83.59765625 165.65625 -85.1875 163.6875 C-88.82497563 159.3631191 -92.89538036 155.73862023 -97.18359375 152.0703125 C-97.82425781 151.44898438 -98.46492187 150.82765625 -99.125 150.1875 C-99.125 149.5275 -99.125 148.8675 -99.125 148.1875 C-99.67671875 147.96449219 -100.2284375 147.74148437 -100.796875 147.51171875 C-103.8555676 145.77195903 -105.9323812 143.52985518 -108.375 141 C-112.15430104 137.1359894 -115.99788616 133.43168255 -120.109375 129.921875 C-122.42614621 127.92837419 -124.67919984 125.87195612 -126.9375 123.8125 C-132.1835686 119.07980814 -137.63277828 114.62950935 -143.125 110.1875 C-144.81254781 108.79172447 -146.50004693 107.39589007 -148.1875 106 C-161.10371391 95.45053551 -174.3665841 85.39386696 -187.95751953 75.73144531 C-190.01789028 74.26379667 -192.07024627 72.78560137 -194.12109375 71.3046875 C-208.30689917 61.11559368 -222.92798428 51.30373391 -237.90234375 42.30859375 C-238.96582031 41.60863281 -240.02929688 40.90867188 -241.125 40.1875 C-241.125 39.5275 -241.125 38.8675 -241.125 38.1875 C-184.6716094 18.24811259 -124.34122037 7.64823306 -64.8125 2.5 C-64.11013214 2.43906158 -63.40776428 2.37812317 -62.68411255 2.31533813 C-57.83370859 1.90016875 -52.98121917 1.52775492 -48.125 1.1875 C-47.4302356 1.1380423 -46.73547119 1.08858459 -46.01965332 1.03762817 C-30.69259256 -0.01455928 -15.35706583 -0.01286107 0 0 Z " fill="#CEA939" transform="translate(242.125,-0.1875)"/>
<path d="M0 0 C-3.1877368 3.26743022 -6.43960742 6.27017302 -10 9.125 C-19.28869403 16.66346904 -28.37319725 24.15742492 -36.734375 32.734375 C-38.77188328 34.77188328 -40.86037664 36.64466772 -43.0625 38.5 C-47.8328683 42.59025555 -51.85793102 47.28955105 -56 52 C-57.45822191 53.58343595 -58.91655563 55.16676895 -60.375 56.75 C-65.37355211 62.29813114 -69.92954414 68.16562565 -74.48828125 74.07446289 C-75.57912105 75.46390951 -76.68826405 76.83905408 -77.80859375 78.20483398 C-83.2661006 84.87639343 -88.12872126 91.87776843 -92.875 99.0625 C-93.46461014 99.95082016 -93.46461014 99.95082016 -94.06613159 100.85708618 C-99.9825631 109.77757923 -105.68622915 118.78660868 -110.93505859 128.11865234 C-111.99618119 129.99325361 -113.0826657 131.85093572 -114.17578125 133.70703125 C-141.97660674 181.339071 -158.0818837 234.67106194 -168.68212891 288.46142578 C-181.98654948 355.78598854 -208.80480179 418.9315048 -250 474 C-251.05397091 475.4253485 -252.10735766 476.85112913 -253.16015625 478.27734375 C-260.89132747 488.71248482 -268.8954654 498.82626579 -277.6640625 508.41796875 C-279.57244394 510.52740041 -281.44685754 512.65775953 -283.3125 514.8046875 C-286.91498072 518.93070044 -290.62219678 522.94823077 -294.375 526.9375 C-295.35835327 527.98345337 -295.35835327 527.98345337 -296.36157227 529.05053711 C-302.86953395 535.95204455 -309.39932909 542.73257465 -316.6171875 548.8984375 C-318.61772729 550.662848 -320.56732116 552.45963267 -322.5078125 554.2890625 C-323.13341064 554.8778418 -323.75900879 555.46662109 -324.40356445 556.07324219 C-325.66100962 557.26008774 -326.91485613 558.45075942 -328.16479492 559.64550781 C-328.74592041 560.19303711 -329.3270459 560.74056641 -329.92578125 561.3046875 C-330.44567627 561.79952637 -330.96557129 562.29436523 -331.5012207 562.80419922 C-333 564 -333 564 -336 565 C-337.82421875 563.85546875 -337.82421875 563.85546875 -339.6875 562.1875 C-340.31011719 561.64480469 -340.93273438 561.10210938 -341.57421875 560.54296875 C-343 559 -343 559 -343 557 C-343.66 557 -344.32 557 -345 557 C-345 556.34 -345 555.68 -345 555 C-345.59941406 554.73703125 -346.19882813 554.4740625 -346.81640625 554.203125 C-349.13016701 552.92828007 -350.27304071 551.78090523 -351.9375 549.75 C-354.72169685 546.44711979 -357.60317839 543.27898321 -360.57446289 540.14624023 C-366.99658894 533.35729597 -372.90364849 526.32385863 -378.55810547 518.88769531 C-380.09931688 516.86997662 -381.65959384 514.8680188 -383.22265625 512.8671875 C-389.79146918 504.42473604 -396.03195277 495.85310607 -401.81152344 486.85058594 C-402.59911072 485.62422777 -403.39138336 484.40086507 -404.18847656 483.18066406 C-423.08667569 454.23845069 -435.94296856 423.34859069 -447.13562012 390.79154968 C-453.1523095 373.30825173 -459.43481694 355.97795667 -466.3125 338.8125 C-466.80195602 337.5876741 -466.80195602 337.5876741 -467.30130005 336.33810425 C-471.93567079 324.77010263 -476.862973 313.35308398 -482 302 C-482.5153833 300.85732666 -483.0307666 299.71465332 -483.56176758 298.53735352 C-484.94803602 295.47861775 -486.34529988 292.42531187 -487.75 289.375 C-488.24733643 288.29468506 -488.74467285 287.21437012 -489.25708008 286.10131836 C-493.41370093 277.13663192 -497.7808247 268.28620548 -502.25488281 259.47607422 C-502.73151367 258.53650879 -503.20814453 257.59694336 -503.69921875 256.62890625 C-504.12033936 255.80463135 -504.54145996 254.98035645 -504.9753418 254.13110352 C-506 252 -506 252 -507 249 C-506.1105957 246.66601563 -506.1105957 246.66601563 -504.67578125 243.90625 C-503.88397461 242.37508545 -503.88397461 242.37508545 -503.07617188 240.81298828 C-502.2031543 239.17305908 -502.2031543 239.17305908 -501.3125 237.5 C-500.42208008 235.81173096 -500.42208008 235.81173096 -499.51367188 234.08935547 C-494.15742765 224.06133925 -488.31806395 214.44613481 -482 205 C-481.45811035 204.18772949 -480.9162207 203.37545898 -480.35791016 202.53857422 C-467.49612583 183.3373676 -453.62771528 165.0456145 -438 148 C-436.80802254 146.64977285 -435.62032343 145.29575342 -434.4375 143.9375 C-433.88578125 143.30714844 -433.3340625 142.67679688 -432.765625 142.02734375 C-431.45722982 140.52500504 -430.15628091 139.01617428 -428.859375 137.50390625 C-427.78429688 136.26447266 -427.78429688 136.26447266 -426.6875 135 C-426.03136719 134.236875 -425.37523437 133.47375 -424.69921875 132.6875 C-423 131 -423 131 -421 131 C-420.74347656 130.41371826 -420.48695312 129.82743652 -420.22265625 129.22338867 C-418.88691603 126.79435789 -417.46545201 125.30752612 -415.4375 123.42578125 C-414.72827393 122.76280029 -414.01904785 122.09981934 -413.28833008 121.41674805 C-412.53318115 120.72234619 -411.77803223 120.02794434 -411 119.3125 C-410.22615967 118.59425049 -409.45231934 117.87600098 -408.6550293 117.13598633 C-407.12208222 115.71575831 -405.58658603 114.2982759 -404.04833984 112.88378906 C-402.40741407 111.37468498 -400.774611 109.85675061 -399.14453125 108.3359375 C-394.06741576 103.65852792 -388.74794834 99.36273013 -383.28979492 95.14404297 C-379.62697142 92.30865714 -376.10987236 89.36688812 -372.625 86.3125 C-363.97149024 79.03752794 -354.35314708 73.05633153 -344.89697266 66.890625 C-342.33462452 65.21838296 -339.78085197 63.5341521 -337.23046875 61.84375 C-328.04903999 55.78581443 -318.68217124 50.21748706 -309 45 C-308.17322754 44.55043945 -307.34645508 44.10087891 -306.49462891 43.63769531 C-252.25950948 14.25743806 -191.67725527 -5.27550054 -130 -10 C-129.34723083 -10.05007202 -128.69446167 -10.10014404 -128.02191162 -10.1517334 C-37.03975944 -17.02511514 -37.03975944 -17.02511514 0 0 Z " fill="#FFFFFF" transform="translate(1506,121)"/>
<path d="M0 0 C4.70561958 1.4246454 8.95832106 3.39017551 13.29296875 5.67578125 C14.72759047 6.42209538 16.16224346 7.1683494 17.59692383 7.91455078 C18.71860458 8.5009433 18.71860458 8.5009433 19.86294556 9.09918213 C23.82575785 11.16760044 27.79948708 13.21480164 31.7734375 15.26171875 C32.5690358 15.67151978 33.36463409 16.0813208 34.18434143 16.50354004 C66.77117725 33.26456221 100.52597258 47.58469075 135 60 C135.67987976 60.24602966 136.35975952 60.49205933 137.0602417 60.74554443 C176.2130091 74.89732246 216.30992922 86.20654012 257 95 C258.18964355 95.25719818 258.18964355 95.25719818 259.40332031 95.51959229 C300.20005108 104.28650133 341.75459997 110.52292854 383.3828125 113.546875 C384.5881665 113.63477295 385.79352051 113.7226709 387.03540039 113.81323242 C389.31774981 113.97453088 391.60079599 114.12636814 393.88452148 114.2668457 C394.89329346 114.33476318 395.90206543 114.40268066 396.94140625 114.47265625 C397.82513916 114.52687744 398.70887207 114.58109863 399.61938477 114.63696289 C403.84690972 115.28164852 403.84690972 115.28164852 406 117 C406.76827051 119.5251159 407.25300727 121.74395581 407.6328125 124.33203125 C407.75508713 125.07170135 407.87736176 125.81137146 408.00334167 126.57345581 C408.39592489 128.98390322 408.76142368 131.39752072 409.125 133.8125 C409.38626254 135.46926749 409.64822707 137.12592444 409.91088867 138.7824707 C411.738185 150.48265407 413.24869332 162.17781208 414 174 C414.08467529 175.21405518 414.16935059 176.42811035 414.2565918 177.67895508 C414.98576684 188.56017872 415.20166529 199.40863322 415.1875 210.3125 C415.18689575 211.18195251 415.1862915 212.05140503 415.18566895 212.94720459 C415.02801248 297.1607494 392.43932424 382.62573081 349 455 C348.39365723 456.0111084 347.78731445 457.0222168 347.16259766 458.06396484 C339.77602268 470.2974438 332.06196437 482.08049303 323.27099609 493.34814453 C321.40780923 495.76964325 319.64469417 498.2597118 317.875 500.75 C314.16012052 505.90390648 310.12093485 510.7328261 306.00390625 515.56640625 C303.99807275 517.8177534 303.99807275 517.8177534 303 520 C305.31 520 307.62 520 310 520 C310.33 520.66 310.66 521.32 311 522 C300.44 522 289.88 522 279 522 C281.19797403 519.80202597 282.17546145 519.54102483 285.125 518.875 C286.40375 518.58625 287.6825 518.2975 289 518 C272.35920458 428.56531031 236.93730819 342.27862177 165.16015625 264.265625 C163 262 163 262 163 260 C162.4225 259.76152344 161.845 259.52304688 161.25 259.27734375 C158.53110393 257.73380379 157.01690818 255.94993866 155 253.5625 C151.68807035 249.76778692 148.27420014 246.33529475 144.515625 242.96875 C138.30818444 237.35007151 132.33286097 231.5190422 126.41357422 225.59887695 C124.71468029 223.90222694 123.00784817 222.21381299 121.30078125 220.52539062 C120.21566048 219.44319478 119.13100601 218.36053112 118.046875 217.27734375 C117.53767517 216.77532944 117.02847534 216.27331512 116.50384521 215.75608826 C113 212.22889885 113 212.22889885 113 210 C112.34 210 111.68 210 111 210 C109.58984375 208.6015625 109.58984375 208.6015625 107.9375 206.625 C105.26933688 203.47821792 102.54691752 200.40792312 99.75 197.375 C94.65422293 191.7255222 89.99750452 185.77148039 85.35546875 179.74951172 C84.08202907 178.10587542 82.79410392 176.47504329 81.5 174.84765625 C69.65016927 159.78849637 59.66164691 143.52176251 50 127 C49.5968457 126.31760254 49.19369141 125.63520508 48.77832031 124.93212891 C29.38613791 92.02493447 0 39.17577569 0 0 Z " fill="#CEA939" transform="translate(614,911)"/>
</svg>
