<?xml version="1.0" standalone="no"?>
<!DOCTYPE svg PUBLIC "-//W3C//DTD SVG 20010904//EN"
 "http://www.w3.org/TR/2001/REC-SVG-20010904/DTD/svg10.dtd">
<svg version="1.0" xmlns="http://www.w3.org/2000/svg"
 width="128.000000pt" height="128.000000pt" viewBox="0 0 128.000000 128.000000"
 preserveAspectRatio="xMidYMid meet">

<g transform="translate(0.000000,128.000000) scale(0.100000,-0.100000)"
fill="#000000" stroke="none">
<path d="M336 1178 c-10 -15 -16 -45 -16 -85 0 -59 -3 -67 -70 -178 -38 -64
-70 -121 -70 -126 0 -26 35 -81 61 -96 27 -16 29 -22 29 -80 l0 -63 -74 0 -74
0 -9 38 c-8 35 -11 37 -48 37 -46 0 -57 -25 -16 -35 23 -5 27 -17 51 -125 23
-102 25 -122 14 -136 -20 -23 -17 -57 6 -71 11 -7 20 -20 20 -28 0 -9 7 -25
15 -36 8 -10 15 -35 15 -54 0 -19 4 -41 8 -48 7 -10 122 -12 543 -10 l534 3 0
60 0 60 -45 5 -45 5 -3 231 -2 231 25 11 c28 13 65 67 65 96 0 10 -30 68 -67
130 -62 102 -68 117 -74 184 -4 40 -13 80 -19 88 -11 12 -71 14 -376 14 l-363
0 -15 -22z m724 -68 l0 -50 -350 0 -350 0 0 43 c0 24 3 47 7 50 3 4 161 7 350
7 l343 0 0 -50z m-560 -97 c0 -4 -12 -49 -27 -100 l-27 -93 -103 0 -102 0 60
100 60 100 70 0 c38 0 69 -3 69 -7z m190 -93 l0 -100 -99 0 -99 0 24 78 c13
42 27 87 30 100 6 20 12 22 75 22 l69 0 0 -100z m219 18 c13 -46 26 -91 29
-100 4 -16 -5 -18 -97 -18 l-101 0 0 100 0 100 73 0 72 0 24 -82z m215 -12
c31 -52 56 -97 56 -100 0 -3 -42 -6 -94 -6 l-95 0 -15 53 c-9 28 -22 73 -30
100 l-15 47 68 0 69 0 56 -94z m-694 -165 c0 -24 -54 -51 -100 -51 -46 0 -100
27 -100 51 0 5 45 9 100 9 55 0 100 -4 100 -9z m492 -21 c-26 -24 -41 -30 -77
-30 -36 0 -51 6 -77 30 l-33 29 110 0 110 0 -33 -29z m-115 -69 c46 -13 102 0
140 33 l28 24 31 -28 c18 -15 49 -30 73 -34 l41 -6 0 -226 0 -225 -82 3 -83 3
-3 139 c-2 117 0 141 13 148 19 11 20 71 1 87 -9 8 -86 11 -257 9 l-244 -3 -3
-37 c-3 -36 -3 -36 -30 -22 -15 8 -48 14 -74 14 l-48 0 0 59 c0 41 4 59 13 58
42 -1 68 6 101 28 l37 25 28 -21 c60 -44 152 -42 199 5 l25 25 29 -24 c16 -13
45 -29 65 -34z m118 -121 c4 -7 -68 -10 -209 -10 -137 0 -216 4 -216 10 0 6
76 10 209 10 129 0 212 -4 216 -10z m-508 -64 c-3 -8 -11 -42 -18 -75 l-12
-62 -110 3 -111 3 -12 55 c-23 97 -33 90 127 90 117 0 140 -2 136 -14z m63
-131 c0 -138 -1 -145 -20 -145 -11 0 -20 6 -20 14 0 8 -9 24 -19 37 -18 23
-25 24 -143 24 -172 0 -167 19 6 23 l134 3 22 94 c12 52 26 95 31 95 5 0 9
-64 9 -145z m218 3 l-3 -143 -87 -3 -88 -3 0 146 0 145 90 0 91 0 -3 -142z
m212 -3 l0 -145 -85 0 -85 0 0 145 0 145 85 0 85 0 0 -145z m-700 -125 c0 -5
-7 -10 -16 -10 -8 0 -12 5 -9 10 3 6 10 10 16 10 5 0 9 -4 9 -10z m118 -2 c-3
-7 -21 -14 -41 -16 -28 -2 -37 1 -37 12 0 12 11 16 41 16 28 0 39 -4 37 -12z
m62 2 c0 -5 -4 -10 -10 -10 -5 0 -10 5 -10 10 0 6 5 10 10 10 6 0 10 -4 10
-10z m830 -85 l0 -25 -500 0 -500 0 0 25 0 25 500 0 500 0 0 -25z"/>
<path d="M465 1119 c-14 -22 14 -30 101 -27 71 2 89 6 89 18 0 12 -18 16 -92
18 -60 2 -94 -1 -98 -9z"/>
<path d="M775 1119 c-14 -22 14 -30 101 -27 71 2 89 6 89 18 0 12 -18 16 -92
18 -60 2 -94 -1 -98 -9z"/>
<path d="M575 387 c-31 -54 -33 -81 -5 -74 13 3 20 0 20 -9 0 -29 30 -13 55
29 30 52 31 67 6 67 -10 0 -21 7 -25 15 -9 25 -24 17 -51 -28z"/>
<path d="M790 384 c-16 -26 -30 -51 -30 -55 0 -15 21 -21 34 -10 11 9 14 8 12
-6 0 -9 6 -19 15 -21 11 -2 26 13 43 44 27 49 26 69 -5 61 -11 -3 -17 -2 -14
3 3 4 -2 13 -10 20 -12 10 -20 4 -45 -36z"/>
</g>
</svg>
