<?xml version="1.0" standalone="no"?>
<!DOCTYPE svg PUBLIC "-//W3C//DTD SVG 20010904//EN"
 "http://www.w3.org/TR/2001/REC-SVG-20010904/DTD/svg10.dtd">
<svg version="1.0" xmlns="http://www.w3.org/2000/svg"
 width="128.000000pt" height="128.000000pt" viewBox="0 0 128.000000 128.000000"
 preserveAspectRatio="xMidYMid meet">

<g transform="translate(0.000000,128.000000) scale(0.100000,-0.100000)"
fill="#000000" stroke="none">
<path d="M90 1258 c-33 -17 -51 -35 -67 -68 -21 -41 -23 -58 -23 -210 0 -152
2 -169 23 -210 16 -33 34 -51 67 -67 41 -21 58 -23 210 -23 152 0 169 2 210
23 33 16 51 34 68 67 20 41 22 58 22 210 0 152 -2 169 -22 210 -17 33 -35 51
-68 68 -41 20 -58 22 -210 22 -152 0 -169 -2 -210 -22z m401 -87 l29 -29 0
-162 0 -162 -29 -29 -29 -29 -162 0 -162 0 -29 29 -29 29 0 162 0 162 29 29
29 29 162 0 162 0 29 -29z"/>
<path d="M770 1258 c-33 -17 -51 -35 -67 -68 -21 -41 -23 -58 -23 -210 0 -152
2 -169 23 -210 16 -33 34 -51 67 -67 41 -21 58 -23 210 -23 152 0 169 2 210
23 33 16 51 34 68 67 20 41 22 58 22 210 0 152 -2 169 -22 210 -17 33 -35 51
-68 68 -41 20 -58 22 -210 22 -152 0 -169 -2 -210 -22z m401 -87 l29 -29 0
-162 0 -162 -29 -29 -29 -29 -162 0 -162 0 -29 29 -29 29 0 162 0 162 29 29
29 29 162 0 162 0 29 -29z"/>
<path d="M90 578 c-33 -17 -51 -35 -67 -68 -21 -41 -23 -58 -23 -210 0 -152 2
-169 23 -210 16 -33 34 -51 67 -68 41 -20 58 -22 210 -22 152 0 169 2 210 22
33 17 51 35 68 68 20 41 22 58 22 210 0 152 -2 169 -22 210 -17 33 -35 51 -68
68 -41 20 -58 22 -210 22 -152 0 -169 -2 -210 -22z m401 -87 l29 -29 0 -162 0
-162 -29 -29 -29 -29 -162 0 -162 0 -29 29 -29 29 0 162 0 162 29 29 29 29
162 0 162 0 29 -29z"/>
<path d="M883 582 c-251 -90 -272 -432 -35 -549 81 -40 183 -40 264 0 107 53
163 144 163 267 0 85 -21 142 -74 203 -72 81 -213 117 -318 79z m198 -90 c168
-87 151 -330 -27 -398 -143 -54 -302 65 -292 218 6 80 47 143 117 180 71 37
131 37 202 0z"/>
</g>
</svg>
