<?xml version="1.0" encoding="UTF-8" standalone="no"?>
<svg
   height="48px"
   viewBox="0 -960 960 960"
   width="48px"
   fill="#1B1B1B"
   version="1.1"
   id="svg1"
   sodipodi:docname="d5b578b9-da50-404b-a668-7f198503cfb2.svg"
   xmlns:inkscape="http://www.inkscape.org/namespaces/inkscape"
   xmlns:sodipodi="http://sodipodi.sourceforge.net/DTD/sodipodi-0.dtd"
   xmlns="http://www.w3.org/2000/svg"
   xmlns:svg="http://www.w3.org/2000/svg">
  <defs
     id="defs1" />
  <sodipodi:namedview
     id="namedview1"
     pagecolor="#ffffff"
     bordercolor="#000000"
     borderopacity="0.25"
     inkscape:showpageshadow="2"
     inkscape:pageopacity="0.0"
     inkscape:pagecheckerboard="0"
     inkscape:deskcolor="#d1d1d1" />
  <path
     d="M295.56-81.15q-22.24 0-38.44-16.2t-16.2-38.42v-688.46q0-22.22 16.2-38.42 16.2-16.2 38.44-16.2h368.88q22.24 0 38.44 16.2t16.2 38.42v688.46q0 22.22-16.2 38.42-16.2 16.2-38.44 16.2H295.56Zm-24.44-85.81v31q0 9.23 7.69 16.92 7.69 7.69 16.92 7.69h368.54q9.23 0 16.92-7.69 7.69-7.69 7.69-16.92v-31H271.12Zm0-30.19h417.76v-565.7H271.12v565.7ZM480-346.69 350.96-476.5l21.89-21.88 92.5 92.5v-199.66h30.19v199.66l91.61-92.5 22.66 21.88L480-346.69ZM271.12-793.04h417.76v-31q0-9.23-7.69-16.92-7.69-7.69-16.92-7.69H295.73q-9.23 0-16.92 7.69-7.69 7.69-7.69 16.92v31Zm0 0v-55.61 55.61Zm0 626.08v55.61-55.61Z"
     id="path1" />
</svg>
