<?xml version="1.0" standalone="no"?>
<!DOCTYPE svg PUBLIC "-//W3C//DTD SVG 20010904//EN"
 "http://www.w3.org/TR/2001/REC-SVG-20010904/DTD/svg10.dtd">
<svg version="1.0" xmlns="http://www.w3.org/2000/svg"
 width="128.000000pt" height="128.000000pt" viewBox="0 0 128.000000 128.000000"
 preserveAspectRatio="xMidYMid meet">

<g transform="translate(0.000000,128.000000) scale(0.100000,-0.100000)"
fill="#000000" stroke="none">
<path d="M577 1230 c-34 -27 -51 -79 -37 -114 13 -35 13 -36 -3 -36 -36 0
-140 -65 -190 -120 -84 -90 -99 -139 -106 -340 -4 -109 -11 -173 -20 -189 -7
-13 -38 -50 -68 -83 -49 -53 -54 -64 -49 -92 12 -59 31 -66 197 -66 l149 0 15
-38 c69 -163 281 -163 350 0 l15 38 149 0 c166 0 185 7 197 66 5 28 0 39 -51
94 -79 85 -85 105 -85 258 0 196 -30 282 -130 376 -46 43 -138 96 -167 96 -16
0 -16 2 -3 36 24 61 -31 134 -100 134 -22 0 -48 -8 -63 -20z m97 -46 c24 -24
20 -61 -9 -80 -23 -15 -27 -15 -50 0 -42 28 -24 96 25 96 10 0 26 -7 34 -16z
m63 -159 c113 -34 208 -133 238 -250 10 -38 15 -105 15 -187 0 -152 8 -175 80
-252 91 -96 117 -91 -430 -91 -547 0 -521 -5 -430 91 72 77 80 100 80 252 0
154 16 226 68 302 83 122 237 177 379 135z m33 -844 c0 -26 -50 -77 -88 -91
-37 -13 -47 -13 -84 0 -38 14 -88 65 -88 91 0 5 59 9 130 9 72 0 130 -4 130
-9z"/>
</g>
</svg>
