<?xml version="1.0" standalone="no"?>
<!DOCTYPE svg PUBLIC "-//W3C//DTD SVG 20010904//EN"
 "http://www.w3.org/TR/2001/REC-SVG-20010904/DTD/svg10.dtd">
<svg version="1.0" xmlns="http://www.w3.org/2000/svg"
 width="64.000000pt" height="64.000000pt" viewBox="0 0 64.000000 64.000000"
 preserveAspectRatio="xMidYMid meet">

<g transform="translate(0.000000,64.000000) scale(0.100000,-0.100000)"
fill="#000000" stroke="none">
<path d="M199 610 c-36 -29 -37 -29 -54 -10 -10 11 -29 20 -42 20 l-23 0 0
-299 c0 -328 1 -335 57 -287 l27 24 39 -31 c27 -22 42 -28 51 -22 67 50 64 49
92 29 15 -11 33 -23 40 -29 9 -6 24 0 52 22 39 32 40 32 57 13 10 -11 29 -20
42 -20 l23 0 0 299 c0 328 -1 334 -57 287 l-28 -24 -35 29 c-42 35 -45 35 -82
4 -16 -14 -33 -25 -38 -25 -5 0 -22 11 -38 25 -17 14 -34 25 -39 25 -4 0 -25
-13 -44 -30z m121 -60 c5 0 24 13 42 29 l33 29 38 -30 38 -31 30 22 29 22 0
-271 0 -271 -29 22 -30 22 -38 -31 -38 -30 -33 29 c-18 16 -37 29 -42 29 -5 0
-24 -13 -42 -29 l-33 -29 -38 30 -38 31 -30 -22 -29 -22 0 271 0 271 29 -22
30 -22 38 31 38 30 33 -29 c18 -16 37 -29 42 -29z"/>
<path d="M175 420 c-13 -21 9 -30 73 -30 74 0 108 13 82 30 -20 13 -147 13
-155 0z"/>
<path d="M175 329 c-15 -24 17 -29 151 -27 116 3 139 6 139 18 0 12 -24 15
-142 18 -96 2 -144 -1 -148 -9z"/>
<path d="M175 239 c-15 -24 17 -29 151 -27 116 3 139 6 139 18 0 12 -24 15
-142 18 -96 2 -144 -1 -148 -9z"/>
</g>
</svg>
