<?xml version="1.0" standalone="no"?>
<!DOCTYPE svg PUBLIC "-//W3C//DTD SVG 20010904//EN"
 "http://www.w3.org/TR/2001/REC-SVG-20010904/DTD/svg10.dtd">
<svg version="1.0" xmlns="http://www.w3.org/2000/svg"
 width="128.000000pt" height="128.000000pt" viewBox="0 0 128.000000 128.000000"
 preserveAspectRatio="xMidYMid meet">

<g transform="translate(0.000000,128.000000) scale(0.100000,-0.100000)"
fill="#000000" stroke="none">
<path d="M893 1232 c-70 -25 -118 -64 -159 -128 l-34 -54 -263 -2 -262 -3 -3
-367 -2 -368 -69 0 c-101 0 -101 0 -101 -84 0 -92 26 -141 90 -173 43 -23 51
-23 395 -23 344 0 352 0 395 22 33 17 51 35 68 68 21 42 22 55 22 291 l0 246
49 6 c96 11 182 72 229 162 22 42 27 63 27 130 0 67 -5 88 -27 130 -70 133
-220 195 -355 147z m166 -38 c61 -18 123 -70 154 -128 28 -55 30 -166 3 -216
-26 -49 -74 -98 -121 -123 -55 -30 -163 -29 -221 0 -79 41 -144 144 -144 228
0 96 85 210 176 239 64 19 89 19 153 0z m-364 -236 c0 -29 4 -67 8 -85 l8 -32
-103 -3 c-89 -3 -103 -5 -106 -20 -3 -16 8 -18 115 -18 l118 0 28 -35 c30 -37
120 -95 150 -95 16 0 17 -18 17 -245 0 -264 -5 -296 -51 -329 -59 -41 -145
-23 -176 37 -8 17 -18 62 -22 101 l-6 71 -232 3 -233 2 0 350 0 350 243 0 242
0 0 -52z m-52 -759 c3 -40 13 -72 26 -90 12 -16 21 -31 21 -34 0 -3 -123 -5
-272 -5 -240 0 -277 2 -308 18 -43 21 -70 72 -70 130 l0 42 299 0 298 0 6 -61z"/>
<path d="M967 1143 c-4 -3 -7 -15 -7 -25 0 -10 -4 -18 -10 -18 -24 0 -50 -41
-50 -78 0 -45 29 -78 78 -88 40 -8 56 -27 48 -58 -11 -46 -81 -42 -88 6 -4 26
-26 35 -34 14 -10 -27 5 -66 31 -78 13 -6 25 -20 27 -32 4 -28 38 -35 38 -7 0
11 10 26 23 32 32 18 46 40 47 75 0 41 -31 80 -71 88 -18 3 -38 11 -46 17 -20
17 -16 57 7 69 30 16 57 4 69 -31 12 -36 35 -34 39 3 2 19 -6 33 -30 53 -18
15 -36 36 -40 46 -8 19 -20 24 -31 12z"/>
<path d="M342 857 c-28 -30 -28 -58 1 -85 44 -42 107 -16 107 43 0 60 -67 86
-108 42z m65 -33 c9 -23 -13 -40 -32 -24 -12 10 -13 16 -4 26 15 18 28 18 36
-2z"/>
<path d="M342 677 c-28 -30 -28 -58 1 -85 44 -42 107 -16 107 43 0 60 -67 86
-108 42z m65 -33 c9 -23 -13 -40 -32 -24 -12 10 -13 16 -4 26 15 18 28 18 36
-2z"/>
<path d="M513 653 c-18 -7 -16 -30 3 -37 9 -3 75 -6 149 -6 98 0 135 3 144 13
23 29 -9 37 -149 36 -74 0 -141 -3 -147 -6z"/>
<path d="M346 499 c-32 -25 -33 -59 -3 -87 27 -26 54 -28 85 -6 30 21 30 77 0
98 -30 21 -50 20 -82 -5z m61 -35 c9 -23 -13 -40 -32 -24 -12 10 -13 16 -4 26
15 18 28 18 36 -2z"/>
<path d="M502 453 c3 -16 18 -18 158 -18 131 0 155 2 155 15 0 13 -25 15 -158
18 -147 2 -158 1 -155 -15z"/>
</g>
</svg>
