<?xml version="1.0" standalone="no"?>
<!DOCTYPE svg PUBLIC "-//W3C//DTD SVG 20010904//EN"
 "http://www.w3.org/TR/2001/REC-SVG-20010904/DTD/svg10.dtd">
<svg version="1.0" xmlns="http://www.w3.org/2000/svg"
 width="64.000000pt" height="64.000000pt" viewBox="0 0 64.000000 64.000000"
 preserveAspectRatio="xMidYMid meet">

<g transform="translate(0.000000,64.000000) scale(0.100000,-0.100000)"
fill="#000000" stroke="none">
<path d="M114 596 c-17 -13 -19 -30 -22 -210 l-3 -196 -45 0 -44 0 0 -45 c0
-51 20 -99 45 -109 9 -3 111 -6 226 -6 210 0 210 0 234 25 24 23 25 30 25 144
l0 120 53 3 52 3 3 122 c4 174 22 163 -271 163 -185 0 -237 -3 -253 -14z m388
-258 c-3 -264 -4 -269 -48 -282 -36 -11 -66 23 -72 82 l-5 52 -128 0 -129 0 0
190 c0 169 2 190 18 199 10 6 92 11 192 11 l175 0 -3 -252z m106 125 l3 -113
-41 0 -40 0 0 103 c0 112 7 130 50 125 25 -3 25 -4 28 -115z m-248 -335 c0
-18 3 -43 6 -56 l7 -23 -157 3 c-176 3 -186 7 -186 75 l0 33 165 0 165 0 0
-32z"/>
<path d="M170 475 c0 -13 12 -15 78 -13 43 2 77 7 77 13 0 6 -34 11 -77 13
-66 2 -78 0 -78 -13z"/>
<path d="M170 375 c0 -13 19 -15 132 -13 94 2 133 7 136 16 3 9 -28 12 -132
12 -115 0 -136 -2 -136 -15z"/>
<path d="M170 275 c0 -13 19 -15 132 -13 94 2 133 7 136 16 3 9 -28 12 -132
12 -115 0 -136 -2 -136 -15z"/>
</g>
</svg>
