<?xml version="1.0" standalone="no"?>
<!DOCTYPE svg PUBLIC "-//W3C//DTD SVG 20010904//EN"
 "http://www.w3.org/TR/2001/REC-SVG-20010904/DTD/svg10.dtd">
<svg version="1.0" xmlns="http://www.w3.org/2000/svg"
 width="128.000000pt" height="128.000000pt" viewBox="0 0 128.000000 128.000000"
 preserveAspectRatio="xMidYMid meet">

<g transform="translate(0.000000,128.000000) scale(0.100000,-0.100000)"
fill="#000000" stroke="none">
<path d="M769 1251 c-30 -16 -166 -95 -304 -175 -244 -143 -251 -146 -308
-146 -74 0 -121 -21 -141 -65 -24 -50 -24 -750 0 -800 31 -66 25 -65 594 -65
453 0 516 2 546 16 52 25 64 57 64 173 0 97 1 100 30 129 30 30 30 31 30 147
0 116 0 117 -30 147 -29 29 -30 32 -30 129 0 118 -12 150 -68 174 -35 16 -49
35 -128 173 -117 204 -145 222 -255 163z m111 -41 c11 -7 12 -12 3 -21 -7 -7
-108 -67 -225 -135 -203 -118 -216 -124 -268 -124 -38 1 -50 3 -40 10 177 108
480 279 495 279 11 1 27 -4 35 -9z m60 -90 c6 -11 9 -24 6 -29 -3 -4 -66 -43
-140 -85 -126 -72 -137 -77 -186 -74 l-51 3 173 102 c95 56 176 102 180 102 4
1 12 -8 18 -19z m73 -131 c16 -28 27 -52 24 -55 -2 -3 -57 -3 -122 -2 l-117 3
89 52 c48 28 90 52 93 52 3 1 18 -22 33 -50z m131 -135 c12 -12 16 -38 16
-114 l0 -98 -113 -4 c-103 -3 -117 -5 -154 -30 -100 -66 -100 -220 0 -286 37
-25 51 -27 154 -30 l113 -4 0 -98 c0 -76 -4 -102 -16 -114 -14 -14 -76 -16
-531 -16 -467 0 -518 2 -535 17 -17 15 -18 40 -18 386 0 331 2 372 17 389 15
17 45 18 534 18 457 0 519 -2 533 -16z m71 -389 l0 -110 -125 -3 c-136 -2
-159 4 -194 51 -41 55 -16 140 49 168 11 4 76 7 145 6 l125 -2 0 -110z"/>
<path d="M943 494 c-15 -24 -15 -29 -2 -53 11 -20 22 -26 49 -26 27 0 38 6 49
26 13 24 13 29 -2 53 -12 18 -26 26 -47 26 -21 0 -35 -8 -47 -26z"/>
</g>
</svg>
