<?xml version="1.0" encoding="UTF-8"?>
<svg version="1.1" xmlns="http://www.w3.org/2000/svg" width="128" height="128">
<path d="M0 0 C1.53718437 -0.01925285 1.53718437 -0.01925285 3.10542297 -0.03889465 C4.21685165 -0.04628159 5.32828033 -0.05366852 6.47338867 -0.0612793 C7.61289474 -0.06935104 8.75240082 -0.07742279 9.92643738 -0.08573914 C12.34156773 -0.09958792 14.75671772 -0.1103065 17.171875 -0.11816406 C20.86585567 -0.1353792 24.55894214 -0.17925999 28.25268555 -0.22338867 C30.59708 -0.2335151 32.94148206 -0.24203136 35.28588867 -0.2487793 C36.39124466 -0.26628738 37.49660065 -0.28379547 38.63545227 -0.30183411 C46.31575407 -0.28010887 46.31575407 -0.28010887 50.25341797 2.07861328 C52.99937913 5.23516486 53.2111978 6.99569885 53.25585938 11.09814453 C53.27511223 12.6353289 53.27511223 12.6353289 53.29475403 14.2035675 C53.30214096 15.31499619 53.30952789 16.42642487 53.31713867 17.5715332 C53.32521042 18.71103928 53.33328217 19.85054535 53.34159851 21.02458191 C53.35544729 23.43971226 53.36616588 25.85486225 53.37402344 28.27001953 C53.39123858 31.9640002 53.43511936 35.65708667 53.47924805 39.35083008 C53.48937448 41.69522453 53.49789074 44.0396266 53.50463867 46.3840332 C53.52214676 47.48938919 53.53965485 48.59474518 53.55769348 49.7335968 C53.53596824 57.4138986 53.53596824 57.4138986 51.17724609 61.3515625 C48.02069451 64.09752366 46.26016052 64.30934233 42.15771484 64.35400391 C40.62053047 64.37325676 40.62053047 64.37325676 39.05229187 64.39289856 C37.38514885 64.40397896 37.38514885 64.40397896 35.68432617 64.4152832 C34.5448201 64.42335495 33.40531403 64.4314267 32.23127747 64.43974304 C29.81614711 64.45359182 27.40099712 64.46431041 24.98583984 64.47216797 C21.29185918 64.48938311 17.59877271 64.53326389 13.9050293 64.57739258 C11.56063485 64.58751901 9.21623278 64.59603527 6.87182617 64.6027832 C5.21379219 64.62904533 5.21379219 64.62904533 3.52226257 64.65583801 C-4.15803923 64.63411277 -4.15803923 64.63411277 -8.09570312 62.27539062 C-10.84166429 59.11883904 -11.05348295 57.35830505 -11.09814453 53.25585938 C-11.11097977 52.23106979 -11.123815 51.20628021 -11.13703918 50.1504364 C-11.14442612 49.03900772 -11.15181305 47.92757904 -11.15942383 46.7824707 C-11.16749557 45.64296463 -11.17556732 44.50345856 -11.18388367 43.329422 C-11.19773245 40.91429164 -11.20845103 38.49914165 -11.21630859 36.08398438 C-11.23352373 32.39000371 -11.27740452 28.69691724 -11.3215332 25.00317383 C-11.33165964 22.65877938 -11.34017589 20.31437731 -11.34692383 17.9699707 C-11.37318596 16.31193672 -11.37318596 16.31193672 -11.39997864 14.6204071 C-11.3782534 6.9401053 -11.3782534 6.9401053 -9.01953125 3.00244141 C-5.86297967 0.25648024 -4.10244568 0.04466158 0 0 Z " fill="#000000" transform="translate(42.921142578125,31.822998046875)"/>
<path d="M0 0 C1.86108398 -0.04350586 1.86108398 -0.04350586 3.75976562 -0.08789062 C4.95150391 -0.09626953 6.14324219 -0.10464844 7.37109375 -0.11328125 C9.00776001 -0.13515503 9.00776001 -0.13515503 10.67749023 -0.1574707 C14.24078414 0.4229931 15.43210657 1.4412688 17.5625 4.3125 C17.5 7.4375 17.5 7.4375 16.5625 10.3125 C13.07571064 12.63702624 11.49282429 12.61023734 7.36328125 12.7265625 C5.55053711 12.78457031 5.55053711 12.78457031 3.70117188 12.84375 C1.8072168 12.89015625 1.8072168 12.89015625 -0.125 12.9375 C-2.03635742 12.99550781 -2.03635742 12.99550781 -3.98632812 13.0546875 C-7.13657292 13.14907686 -10.28680991 13.2346583 -13.4375 13.3125 C-13.4468457 14.10946289 -13.45619141 14.90642578 -13.46582031 15.72753906 C-13.51951498 19.33982175 -13.60316608 22.95080821 -13.6875 26.5625 C-13.70876953 28.44388672 -13.70876953 28.44388672 -13.73046875 30.36328125 C-13.76269531 31.56855469 -13.79492188 32.77382813 -13.828125 34.015625 C-13.84907227 35.12583008 -13.87001953 36.23603516 -13.89160156 37.37988281 C-14.55376026 40.93706092 -15.55802684 42.17342555 -18.4375 44.3125 C-21.5625 44.25 -21.5625 44.25 -24.4375 43.3125 C-27.71222505 38.40041243 -26.80643287 32.89787501 -26.8125 27.125 C-26.83699219 25.91779297 -26.86148437 24.71058594 -26.88671875 23.46679688 C-26.91033193 16.26871158 -26.43298569 11.37411972 -22.4375 5.3125 C-15.25853206 -0.40137244 -8.81294531 0.06845892 0 0 Z " fill="#000000" transform="translate(36.4375,9.6875)"/>
<path d="M0 0 C2.875 0.9375 2.875 0.9375 4.875 3.9375 C5.34771588 8.31786806 5.24537248 12.72191848 5.25 17.125 C5.27449219 18.33220703 5.29898438 19.53941406 5.32421875 20.78320312 C5.34783193 27.98128842 4.87048569 32.87588028 0.875 38.9375 C-6.30396794 44.65137244 -12.74955469 44.18154108 -21.5625 44.25 C-22.80322266 44.27900391 -24.04394531 44.30800781 -25.32226562 44.33789062 C-27.10987305 44.35045898 -27.10987305 44.35045898 -28.93359375 44.36328125 C-30.57026001 44.38515503 -30.57026001 44.38515503 -32.23999023 44.4074707 C-35.80328414 43.8270069 -36.99460657 42.8087312 -39.125 39.9375 C-39.0625 36.8125 -39.0625 36.8125 -38.125 33.9375 C-34.63821064 31.61297376 -33.05532429 31.63976266 -28.92578125 31.5234375 C-27.71728516 31.48476562 -26.50878906 31.44609375 -25.26367188 31.40625 C-24.00103516 31.3753125 -22.73839844 31.344375 -21.4375 31.3125 C-19.52614258 31.25449219 -19.52614258 31.25449219 -17.57617188 31.1953125 C-14.42592708 31.10092314 -11.27569009 31.0153417 -8.125 30.9375 C-8.1156543 30.14053711 -8.10630859 29.34357422 -8.09667969 28.52246094 C-8.04298502 24.91017825 -7.95933392 21.29919179 -7.875 17.6875 C-7.86082031 16.43324219 -7.84664062 15.17898437 -7.83203125 13.88671875 C-7.79980469 12.68144531 -7.76757812 11.47617188 -7.734375 10.234375 C-7.7029541 8.56906738 -7.7029541 8.56906738 -7.67089844 6.87011719 C-6.79819364 2.18186585 -4.8394587 -0.09678917 0 0 Z " fill="#000000" transform="translate(113.125,74.0625)"/>
<path d="M0 0 C2.875 0.9375 2.875 0.9375 4.875 3.9375 C5.19384766 6.7565918 5.19384766 6.7565918 5.2890625 10.13671875 C5.32773437 11.34521484 5.36640625 12.55371094 5.40625 13.79882812 C5.4371875 15.06146484 5.468125 16.32410156 5.5 17.625 C5.53867187 18.89923828 5.57734375 20.17347656 5.6171875 21.48632812 C5.71157686 24.63657292 5.7971583 27.78680991 5.875 30.9375 C6.67196289 30.9468457 7.46892578 30.95619141 8.29003906 30.96582031 C11.90232175 31.01951498 15.51330821 31.10316608 19.125 31.1875 C20.37925781 31.20167969 21.63351563 31.21585938 22.92578125 31.23046875 C24.13105469 31.26269531 25.33632813 31.29492188 26.578125 31.328125 C27.68833008 31.34907227 28.79853516 31.37001953 29.94238281 31.39160156 C33.49956092 32.05376026 34.73592555 33.05802684 36.875 35.9375 C36.8125 39.0625 36.8125 39.0625 35.875 41.9375 C30.96291243 45.21222505 25.46037501 44.30643287 19.6875 44.3125 C17.87668945 44.34923828 17.87668945 44.34923828 16.02929688 44.38671875 C8.83121158 44.41033193 3.93661972 43.93298569 -2.125 39.9375 C-7.83887244 32.75853206 -7.36904108 26.31294531 -7.4375 17.5 C-7.46650391 16.25927734 -7.49550781 15.01855469 -7.52539062 13.74023438 C-7.53376953 12.54849609 -7.54214844 11.35675781 -7.55078125 10.12890625 C-7.56536377 9.03779541 -7.57994629 7.94668457 -7.5949707 6.82250977 C-6.83064605 2.13054904 -4.79509728 -0.09590195 0 0 Z " fill="#000000" transform="translate(17.125,74.0625)"/>
<path d="M0 0 C1.20720703 -0.02449219 2.41441406 -0.04898437 3.65820312 -0.07421875 C10.85628842 -0.09783193 15.75088028 0.37951431 21.8125 4.375 C27.52637244 11.55396794 27.05654108 17.99955469 27.125 26.8125 C27.15400391 28.05322266 27.18300781 29.29394531 27.21289062 30.57226562 C27.22126953 31.76400391 27.22964844 32.95574219 27.23828125 34.18359375 C27.25286377 35.27470459 27.26744629 36.36581543 27.2824707 37.48999023 C26.7020069 41.05328414 25.6837312 42.24460657 22.8125 44.375 C19.6875 44.3125 19.6875 44.3125 16.8125 43.375 C14.48797376 39.88821064 14.51476266 38.30532429 14.3984375 34.17578125 C14.35976562 32.96728516 14.32109375 31.75878906 14.28125 30.51367188 C14.2503125 29.25103516 14.219375 27.98839844 14.1875 26.6875 C14.14882812 25.41326172 14.11015625 24.13902344 14.0703125 22.82617188 C13.97592314 19.67592708 13.8903417 16.52569009 13.8125 13.375 C13.01553711 13.3656543 12.21857422 13.35630859 11.39746094 13.34667969 C7.78517825 13.29298502 4.17419179 13.20933392 0.5625 13.125 C-0.69175781 13.11082031 -1.94601563 13.09664062 -3.23828125 13.08203125 C-4.44355469 13.04980469 -5.64882812 13.01757812 -6.890625 12.984375 C-8.00083008 12.96342773 -9.11103516 12.94248047 -10.25488281 12.92089844 C-13.81206092 12.25873974 -15.04842555 11.25447316 -17.1875 8.375 C-17.125 5.25 -17.125 5.25 -16.1875 2.375 C-11.27541243 -0.89972505 -5.77287501 0.00606713 0 0 Z " fill="#000000" transform="translate(91.1875,9.625)"/>
</svg>
