<?xml version="1.0" standalone="no"?>
<!DOCTYPE svg PUBLIC "-//W3C//DTD SVG 20010904//EN"
 "http://www.w3.org/TR/2001/REC-SVG-20010904/DTD/svg10.dtd">
<svg version="1.0" xmlns="http://www.w3.org/2000/svg"
 width="128.000000pt" height="128.000000pt" viewBox="0 0 128.000000 128.000000"
 preserveAspectRatio="xMidYMid meet">

<g transform="translate(0.000000,128.000000) scale(0.100000,-0.100000)"
fill="#000000" stroke="none">
<path d="M72 1260 c-62 -38 -73 -70 -70 -205 l3 -120 27 -3 c38 -5 48 25 48
147 0 62 4 101 12 109 8 8 49 12 118 12 118 0 144 10 138 51 -3 24 -4 24 -123
27 -105 2 -124 0 -153 -18z"/>
<path d="M937 1273 c-14 -13 -6 -53 12 -63 11 -5 66 -10 123 -10 68 0 108 -4
116 -12 8 -8 12 -47 12 -109 0 -116 10 -149 44 -149 32 0 36 14 36 138 0 121
-13 156 -72 192 -28 17 -51 20 -149 20 -64 0 -119 -3 -122 -7z"/>
<path d="M263 1070 c-44 -18 -64 -67 -61 -154 2 -62 7 -81 21 -90 12 -8 22 -8
35 0 13 9 18 29 22 90 l5 79 75 5 c41 3 81 9 88 13 17 12 15 54 -4 61 -24 9
-156 6 -181 -4z"/>
<path d="M833 1073 c-7 -2 -13 -15 -13 -28 0 -33 14 -39 100 -45 l75 -5 5 -79
c4 -61 9 -81 22 -90 13 -8 23 -8 35 0 14 9 19 28 21 90 3 89 -17 136 -64 154
-26 10 -159 12 -181 3z"/>
<path d="M16 664 c-20 -19 -20 -29 0 -48 14 -14 84 -16 624 -16 540 0 610 2
624 16 20 19 20 29 0 48 -14 14 -84 16 -624 16 -540 0 -610 -2 -624 -16z"/>
<path d="M216 454 c-21 -21 -22 -144 -1 -188 21 -44 47 -57 129 -63 84 -6 116
5 116 42 0 29 -15 34 -110 37 l-65 3 -5 83 c-4 59 -9 86 -20 92 -21 13 -26 12
-44 -6z"/>
<path d="M1020 460 c-11 -6 -16 -33 -20 -92 l-5 -83 -65 -3 c-95 -3 -110 -8
-110 -37 0 -37 32 -48 116 -42 82 6 108 19 129 63 21 44 20 167 -1 188 -18 18
-23 19 -44 6z"/>
<path d="M7 343 c-4 -3 -7 -58 -7 -122 0 -98 3 -121 20 -149 36 -59 71 -72
195 -72 61 0 116 4 123 9 8 4 12 19 10 32 -3 23 -6 24 -119 29 -76 4 -122 10
-133 19 -13 11 -16 33 -16 112 0 116 -10 149 -43 149 -13 0 -27 -3 -30 -7z"/>
<path d="M1210 324 c-6 -14 -10 -69 -10 -123 0 -79 -3 -101 -16 -112 -11 -9
-57 -15 -133 -19 -113 -5 -116 -6 -119 -29 -2 -13 2 -28 10 -32 7 -5 63 -9
123 -9 92 0 115 3 143 20 59 36 72 71 72 192 0 58 -3 113 -6 122 -10 26 -53
20 -64 -10z"/>
</g>
</svg>
