<?xml version="1.0" standalone="no"?>
<!DOCTYPE svg PUBLIC "-//W3C//DTD SVG 20010904//EN"
 "http://www.w3.org/TR/2001/REC-SVG-20010904/DTD/svg10.dtd">
<svg version="1.0" xmlns="http://www.w3.org/2000/svg"
 width="128.000000pt" height="128.000000pt" viewBox="0 0 128.000000 128.000000"
 preserveAspectRatio="xMidYMid meet">

<g transform="translate(0.000000,128.000000) scale(0.100000,-0.100000)"
fill="#000000" stroke="none">
<path d="M972 1188 c-23 -23 -11 -44 78 -133 l90 -90 -561 -5 c-521 -5 -563
-6 -573 -23 -8 -12 -8 -22 0 -35 10 -16 52 -17 573 -22 l561 -5 -90 -90 c-49
-49 -90 -97 -90 -105 0 -20 20 -40 40 -40 20 0 280 260 280 280 0 20 -261 280
-281 280 -8 0 -20 -5 -27 -12z"/>
<path d="M132 507 c-72 -73 -132 -139 -132 -147 0 -20 261 -280 280 -280 20 0
40 20 40 40 0 8 -41 56 -90 105 l-90 90 561 5 c521 5 563 6 573 22 8 13 8 23
0 35 -10 17 -52 18 -573 23 l-561 5 90 90 c49 49 90 97 90 105 0 20 -20 40
-40 40 -8 0 -75 -60 -148 -133z"/>
</g>
</svg>
