<?xml version="1.0" standalone="no"?>
<!DOCTYPE svg PUBLIC "-//W3C//DTD SVG 20010904//EN"
 "http://www.w3.org/TR/2001/REC-SVG-20010904/DTD/svg10.dtd">
<svg version="1.0" xmlns="http://www.w3.org/2000/svg"
 width="64.000000pt" height="64.000000pt" viewBox="0 0 64.000000 64.000000"
 preserveAspectRatio="xMidYMid meet">

<g transform="translate(0.000000,64.000000) scale(0.100000,-0.100000)"
fill="#000000" stroke="none">
<path d="M305 584 c-50 -28 -70 -34 -120 -34 -83 -1 -138 -27 -164 -79 -19
-36 -21 -58 -21 -215 l0 -176 29 -32 29 -33 262 0 262 0 29 33 29 32 0 176 c0
210 -9 237 -87 275 -26 12 -61 37 -76 56 -39 45 -89 45 -172 -3z m141 2 c23
-17 28 -13 -78 -70 -80 -43 -92 -47 -147 -44 l-60 3 112 62 c118 65 141 72
173 49z m47 -81 l17 -35 -83 0 -82 1 60 34 c33 19 63 35 66 35 3 0 13 -16 22
-35z m-326 4 c-10 -6 -43 -21 -73 -35 -52 -23 -54 -23 -44 -4 15 27 59 49 100
49 29 0 32 -1 17 -10z m423 -39 c10 -19 9 -19 -17 -8 -29 12 -53 35 -53 50 0
14 59 -21 70 -42z m-2 -46 c16 -11 22 -25 22 -55 l0 -39 -65 0 c-82 0 -115
-25 -115 -87 1 -66 37 -93 124 -93 l56 0 0 -35 c0 -22 -8 -43 -20 -55 -19 -19
-33 -20 -270 -20 -237 0 -251 1 -270 20 -18 18 -20 33 -20 184 0 159 1 165 22
180 33 24 503 24 536 0z m22 -184 l0 -70 -40 0 c-85 0 -138 48 -110 100 16 29
40 39 98 40 l52 0 0 -70z"/>
<path d="M490 265 c-15 -18 -10 -45 13 -59 34 -22 73 27 47 59 -16 19 -44 19
-60 0z m40 -25 c0 -5 -4 -10 -10 -10 -5 0 -10 5 -10 10 0 6 5 10 10 10 6 0 10
-4 10 -10z"/>
</g>
</svg>
