<?xml version="1.0" standalone="no"?>
<!DOCTYPE svg PUBLIC "-//W3C//DTD SVG 20010904//EN"
 "http://www.w3.org/TR/2001/REC-SVG-20010904/DTD/svg10.dtd">
<svg version="1.0" xmlns="http://www.w3.org/2000/svg"
 width="128.000000pt" height="128.000000pt" viewBox="0 0 128.000000 128.000000"
 preserveAspectRatio="xMidYMid meet">

<g transform="translate(0.000000,128.000000) scale(0.100000,-0.100000)"
fill="#000000" stroke="none">
<path d="M722 1067 c-94 -95 -152 -160 -152 -172 0 -13 59 -80 159 -179 124
-124 163 -157 178 -152 25 8 323 308 323 326 0 23 -312 330 -335 330 -13 0
-75 -55 -173 -153z"/>
<path d="M77 1127 c-16 -11 -17 -35 -15 -242 l3 -230 229 -3 c160 -2 233 1
242 9 11 9 14 57 14 235 0 211 -1 224 -19 234 -30 15 -433 13 -454 -3z m403
-237 l0 -170 -175 0 -175 0 0 170 0 170 175 0 175 0 0 -170z"/>
<path d="M72 538 c-13 -13 -18 -431 -6 -462 5 -14 35 -16 233 -16 163 0 230 3
239 12 9 9 12 75 12 235 0 210 -1 223 -19 233 -29 15 -444 13 -459 -2z m408
-238 l0 -170 -175 0 -175 0 0 170 0 170 175 0 175 0 0 -170z"/>
<path d="M666 534 c-14 -13 -16 -49 -16 -233 0 -173 3 -221 14 -230 9 -8 82
-11 242 -9 l229 3 3 229 c2 160 -1 233 -9 242 -9 11 -57 14 -230 14 -184 0
-220 -2 -233 -16z"/>
</g>
</svg>
