<svg width="18" height="22" viewBox="0 0 18 22" fill="none" xmlns="http://www.w3.org/2000/svg">
<path d="M1 18V9C1 5.22876 1 3.34315 2.17157 2.17157C3.34315 1 5.22876 1 9 1C12.7712 1 14.6569 1 15.8284 2.17157C17 3.34315 17 5.22876 17 9V18C17 19.6569 15.6569 21 14 21C13.3509 21 12.7193 20.7895 12.2 20.4L11.7692 20.0769C10.1282 18.8462 7.8718 18.8462 6.23077 20.0769L5.8 20.4C5.28071 20.7895 4.64911 21 4 21C2.34315 21 1 19.6569 1 18Z" stroke="#3F3D56" stroke-width="2" stroke-linecap="round"/>
<path d="M6 7H12" stroke="#3F3D56" stroke-width="2" stroke-linecap="round"/>
</svg>
