<svg width="24" height="24" viewBox="0 0 24 24" fill="none" xmlns="http://www.w3.org/2000/svg">
<path d="M5.51543 13.7531L5.121 10.3531C4.90618 8.50133 4.79877 7.57543 5.09386 6.85834C5.35301 6.2286 5.8187 5.70576 6.41439 5.37576C7.0927 5 8.02481 5 9.88903 5H16.5907C18.7944 5 19.8963 5 20.6284 5.46022C21.2694 5.86322 21.7343 6.49371 21.9299 7.2252C22.1532 8.06055 21.8275 9.11323 21.1762 11.2186L20.1244 14.6186C19.7489 15.8326 19.5611 16.4396 19.1965 16.8893C18.8747 17.2863 18.4567 17.5945 17.9824 17.7846C17.445 18 16.8096 18 15.5388 18H10.2835C8.77096 18 8.01471 18 7.41164 17.7186C6.88036 17.4707 6.43337 17.0726 6.1259 16.5734C5.77687 16.0068 5.68972 15.2556 5.51543 13.7531Z" stroke="#FEFEFE" stroke-width="2" stroke-linecap="round"/>
<path d="M5.19231 11L4.5 5L4.3288 3.97279C4.13906 2.83438 3.15411 2 2 2" stroke="#FEFEFE" stroke-width="2" stroke-linecap="round"/>
<path d="M10.25 10.5V12.5" stroke="#FEFEFE" stroke-width="2" stroke-linecap="round"/>
<path d="M13.25 10.5V12.5" stroke="#FEFEFE" stroke-width="2" stroke-linecap="round"/>
<path d="M16.25 10.5V12.5" stroke="#FEFEFE" stroke-width="2" stroke-linecap="round"/>
<path d="M17.9995 21.9995H18.0005" stroke="#FEFEFE" stroke-width="2" stroke-linecap="round" stroke-linejoin="round"/>
<path d="M8.99951 21.9995H9.00051" stroke="#FEFEFE" stroke-width="2" stroke-linecap="round" stroke-linejoin="round"/>
</svg>
