<svg width="24" height="24" viewBox="0 0 24 24" fill="none" xmlns="http://www.w3.org/2000/svg"><path d="M10 19.338C14.6369 20.1508 19.812 17.9377 21.8619 12.7343C22.046 12.2668 22.046 11.7332 21.8619 11.2657C21.5342 10.434 21.1268 9.67875 20.6544 9" stroke="#6C63FF" stroke-width="2" stroke-linecap="round" stroke-linejoin="round"/><path d="M17.4282 6.00002C12.1448 2.86968 4.51063 4.62501 2.11436 11.3393C1.96188 11.7666 1.96188 12.2334 2.11436 12.6607C2.91699 14.9096 4.30726 16.6022 6 17.7413" stroke="#6C63FF" stroke-width="2" stroke-linecap="round" stroke-linejoin="round"/><path d="M14.2486 9.31775C13.6404 8.80736 12.8561 8.5 12 8.5C10.067 8.5 8.5 10.067 8.5 12C8.5 12.8183 8.78081 13.571 9.25132 14.167" stroke="#6C63FF" stroke-width="2" stroke-linecap="round"/><path d="M21 3L3 21" stroke="#6C63FF" stroke-width="2" stroke-linecap="round"/><path d="M9.12734 14C8.73191 13.4331 8.5 12.7436 8.5 12C8.5 10.067 10.067 8.5 12 8.5C12.7436 8.5 13.4331 8.73191 14 9.12734" stroke="#6C63FF" stroke-width="2" stroke-linecap="round"/></svg>