<svg width="185" height="32" viewBox="0 0 185 32" fill="none" xmlns="http://www.w3.org/2000/svg">
<path d="M15.0697 12.518C14.2561 12.5756 13.4406 12.6157 12.63 12.694C11.2111 12.8309 9.80104 13.0372 8.4565 13.5359C8.04996 13.6881 7.66321 13.8887 7.3046 14.1334C6.84696 14.4453 6.80785 14.8423 7.15303 15.2804C7.31872 15.4675 7.49782 15.6424 7.68889 15.8035C7.71529 15.5297 7.66542 15.2354 7.78667 15.0418C7.91868 14.8247 8.17781 14.6594 8.42228 14.5382C9.41968 14.0346 10.507 13.8292 11.6003 13.665C14.2824 13.2703 17.0034 13.2128 19.6998 13.4938C20.8879 13.6141 22.0652 13.8674 23.2357 14.1177C23.9094 14.2615 24.5519 14.5313 25.0838 15.1092C25.1313 14.9749 25.1445 14.8308 25.1221 14.6901C25.0997 14.5494 25.0425 14.4165 24.9557 14.3035C24.6144 13.8077 24.1285 13.487 23.6033 13.2191C23.4994 13.1782 23.408 13.1108 23.3384 13.0235C23.4479 13.046 23.5574 13.0665 23.6659 13.0919C24.2802 13.2281 24.8553 13.5023 25.3478 13.8938C25.5376 14.0465 25.7063 14.2238 25.8495 14.4208C26.2269 14.9489 26.1849 15.5346 25.6637 15.9169C25.2374 16.2301 24.7654 16.4758 24.2644 16.6454C22.5962 17.1989 20.8693 17.4913 19.1248 17.6771C17.2754 17.8809 15.412 17.9254 13.555 17.8101C11.5015 17.6751 9.48226 17.3495 7.55688 16.5985C7.12071 16.4313 6.71503 16.1934 6.35608 15.8945C5.67746 15.3146 5.7508 14.4912 6.48418 13.9896C7.33393 13.4097 8.31178 13.1526 9.2994 12.9306C11.1559 12.5134 13.0613 12.3554 14.9611 12.4612C14.9999 12.4651 15.0384 12.471 15.0765 12.4788L15.0697 12.518ZM9.38741 15.7204L9.51355 15.6656C9.37861 15.209 9.6348 14.9411 9.97803 14.7856C10.4668 14.5584 10.9763 14.379 11.4996 14.2497C12.2486 14.0796 13.0172 13.9906 13.777 13.8674C13.6811 13.8435 13.582 13.8356 13.4836 13.8439C12.7453 13.9094 11.9983 13.927 11.2727 14.061C10.6244 14.1803 9.99367 14.413 9.36883 14.633C9.15762 14.7074 8.92293 14.8971 9.00116 15.1611C9.0569 15.3703 9.25051 15.5366 9.38741 15.7204Z" fill="#9C4400"/>
<path d="M26.1006 18.6755C26.0468 19.0774 26.0028 19.4177 25.949 19.7932C26 19.7767 26.0492 19.7551 26.0957 19.7286C26.9435 19.0226 27.6084 18.1836 27.9839 17.1344C28.0113 17.0541 28.0319 16.9717 28.0455 16.888C28.1296 16.4401 28.0143 16.1272 27.7121 15.9747C27.5299 15.8829 27.3218 15.8564 27.1225 15.8997C26.9231 15.9429 26.7447 16.0533 26.6169 16.2123C26.5064 16.3443 26.4321 16.5056 26.2991 16.6425L26.8565 15.0565C27.3067 15.0248 27.7573 15.1136 28.1619 15.3136C28.6929 15.5962 28.9256 16.1702 28.6772 16.8274C28.4212 17.4773 28.1183 18.1077 27.7708 18.7136C27.5028 19.1937 27.1401 19.6201 26.8516 20.0894C26.4116 20.8033 26.4761 21.1269 27.1127 21.6804C27.1336 21.7026 27.1523 21.7269 27.1684 21.7528C26.5915 22.1439 26.0859 22.0549 25.4728 21.435C24.3503 24.2414 22.2459 25.9164 19.418 26.7965C19.6136 26.7554 19.8179 26.7173 20.0174 26.6743C20.2169 26.6312 20.4017 26.5902 20.5934 26.5481L20.6325 26.6185C20.3734 26.7936 20.1328 27.0097 19.8502 27.1358C17.5601 28.1332 15.2406 28.1674 12.9134 27.2747C12.4789 27.1169 12.1096 26.8185 11.8641 26.4269C11.8095 26.35 11.7337 26.2906 11.6461 26.2558C8.97264 25.0677 7.40026 22.9526 6.56811 20.2205C6.18129 18.907 5.97825 17.5463 5.96478 16.1771C7.7914 17.6439 10.0052 17.9118 12.2005 18.165C13.5568 18.3215 14.9326 18.3039 16.3006 18.3606C16.3417 18.3606 16.3828 18.3704 16.4229 18.3743L16.4307 18.4584C15.668 18.5317 14.9072 18.6393 14.1435 18.6706C12.2504 18.7459 10.3641 18.6706 8.49545 18.3264C8.26526 18.2871 8.03141 18.2737 7.79825 18.2863C7.53912 18.2961 7.38853 18.4545 7.38168 18.7175C7.37264 18.8977 7.38281 19.0783 7.412 19.2563C8.03586 22.5693 9.92017 24.8125 13.1246 25.8998C13.8003 26.1296 14.5141 26.247 15.2103 26.4161L15.2514 26.3183C15.2216 26.2735 15.1868 26.2321 15.1477 26.1951C13.7735 25.1521 12.9847 23.7743 12.7814 22.0618C12.7071 21.4899 12.7843 20.9086 13.0053 20.376C13.4033 19.4333 14.2833 18.9815 15.2856 19.2025C16.3613 19.4402 17.1435 20.1051 17.7703 20.9715C18.6054 22.138 19.0894 23.4239 18.8626 24.8829C18.801 25.2789 18.6181 25.6563 18.492 26.0416L18.3834 26.024C18.3564 25.9752 18.3354 25.9233 18.3209 25.8695C18.2005 25.1087 17.8356 24.4077 17.2814 23.8727C16.771 23.3643 16.2204 22.8949 15.6807 22.4157C14.9355 21.7537 14.3479 20.991 14.1161 19.9985C14.0951 19.9576 14.0695 19.9192 14.0398 19.8841C13.9756 20.3237 14.0234 20.7723 14.1787 21.1885C14.4359 21.9346 14.9453 22.5018 15.4988 23.0367C15.9036 23.4278 16.3202 23.8072 16.7113 24.2101C17.2335 24.7489 17.6051 25.3708 17.6579 26.1413C17.6706 26.3125 17.7508 26.3565 17.9092 26.331C21.2505 25.7883 23.8164 24.1534 25.2841 21.0262C25.6273 20.2997 25.8151 19.5027 26.1006 18.6755ZM15.1673 19.3825C17.2618 20.4757 18.3473 22.2104 18.4861 24.5572C18.9525 22.2436 17.0536 19.8186 15.1673 19.3825ZM17.2628 25.9262C17.4242 25.318 16.7944 24.3089 16.062 23.993L17.2628 25.9262Z" fill="#9C4400"/>
<path d="M19.6987 29.777C20.4761 29.6977 21.2574 29.6381 22.0319 29.5315C22.8063 29.4249 23.5759 29.2704 24.3728 29.1942C24.0717 29.3311 23.7773 29.4875 23.4683 29.6029C22.2949 30.0439 21.0716 30.2512 19.8337 30.3783C17.1055 30.659 14.3831 30.6423 11.6823 30.1094C10.7524 29.9266 9.83909 29.685 9.06268 29.0925C8.96001 29.0133 8.80746 28.9947 8.67154 28.9575C7.76117 28.6984 6.85666 28.4168 6.07145 27.8682C5.79268 27.676 5.54474 27.4426 5.33611 27.1759C5.01831 26.7593 5.02026 26.2802 5.36544 25.8861C5.66564 25.5439 6.04309 25.2701 6.38632 24.9659L6.44694 25.0315C6.44694 25.0461 6.44694 25.0667 6.43814 25.0755C5.73214 25.7463 5.74778 26.3467 6.51148 26.9666C7.15979 27.4888 7.93327 27.7636 8.7175 28.0002C10.8189 28.6329 12.9819 28.848 15.1635 28.9067C17.8692 28.978 20.5592 28.8284 23.1818 28.1156C23.9132 27.92 24.6173 27.6042 25.3135 27.2981C25.5994 27.1577 25.8567 26.9654 26.0723 26.731C26.5251 26.2714 26.5163 25.7336 26.088 25.2554C26.0143 25.1935 25.9507 25.1206 25.8992 25.0393C26.4488 25.3111 26.9661 25.6201 27.1929 26.2371C27.2613 26.4011 27.2792 26.5817 27.2444 26.7559C27.2096 26.9301 27.1236 27.09 26.9974 27.215C26.6199 27.5768 26.2151 27.9347 25.7535 28.1782C24.4941 28.848 23.1134 29.1462 21.7141 29.3829C21.0364 29.4973 20.3539 29.5784 19.6733 29.6762L19.6987 29.777Z" fill="#9C4400"/>
<path d="M17.6277 20.2302C18.2251 19.7686 18.8793 19.4665 19.6508 19.7109C20.482 19.975 20.7978 20.6731 20.8712 21.4544C21.0306 23.1754 20.4175 24.6099 19.1257 25.757C19.0933 25.7849 19.0551 25.8052 19.0138 25.8164C18.9725 25.8276 18.9292 25.8293 18.8871 25.8215C19.0035 25.6162 19.0944 25.3912 19.2401 25.2103C20.0527 24.2032 20.57 23.0953 20.4712 21.7654C20.4657 21.6585 20.4398 21.5536 20.395 21.4564C20.3592 22.5796 19.9702 23.6629 19.2832 24.5523C19.2255 24.076 19.1746 23.6311 19.1169 23.1882C19.109 23.082 19.0836 22.9779 19.0416 22.8801C18.6094 22.0147 19.0827 21.3635 19.5511 20.7132C19.6489 20.5783 19.777 20.4658 19.8747 20.3221C19.2558 20.5323 18.8793 21.0066 18.5674 21.5679L17.6277 20.2302Z" fill="#9C4400"/>
<path d="M14.8729 4.20529C15.6738 4.45269 16.4238 4.792 16.988 5.42662C17.7644 6.30668 17.6383 7.38232 16.6683 8.1421C16.2009 8.50684 15.707 8.83931 15.2308 9.19231C15.1041 9.28885 14.9863 9.39651 14.8788 9.51402C14.4603 9.95992 14.3723 10.4361 14.739 10.9251C15.1184 11.4296 15.5907 11.8638 16.0239 12.3273C16.0806 12.3869 16.1461 12.4378 16.2409 12.5229C15.5369 12.3068 14.0633 11.191 13.7142 10.6297C13.3651 10.0685 13.3729 9.51794 13.8511 9.03195C14.2804 8.59583 14.7849 8.235 15.2475 7.83115C15.5685 7.57224 15.8695 7.28949 16.1481 6.98531C16.5842 6.46998 16.6076 5.94977 16.1833 5.42075C15.8752 5.03744 15.4753 4.72746 15.1135 4.38815C15.0371 4.32233 14.9568 4.26126 14.8729 4.20529Z" fill="#9C4400"/>
<path d="M17.5338 9.52375C17.8907 9.10523 18.2339 8.75614 18.5116 8.36207C19.0367 7.62086 19.068 6.81903 18.5547 6.07293C18.143 5.47351 17.6316 4.94254 17.17 4.37636C16.9618 4.13636 16.77 3.88251 16.596 3.61658C16.1257 2.84506 16.2704 2.09505 17.0067 1.479C16.8112 2.78834 17.6247 3.63027 18.3415 4.5162C18.6544 4.90733 18.9859 5.27989 19.2636 5.68961C19.9227 6.66746 19.8396 7.50548 19.0231 8.35914C18.8231 8.56403 18.608 8.75361 18.3796 8.92629C18.1225 9.1287 17.8457 9.30276 17.5338 9.52375Z" fill="#9C4400"/>
<path d="M9.38744 15.7204C9.25249 15.5365 9.05888 15.3703 8.9963 15.165C8.91807 14.9009 9.15275 14.7112 9.36397 14.6369C9.98881 14.4169 10.6195 14.1842 11.2678 14.0649C11.9934 13.9309 12.7405 13.9133 13.4787 13.8478C13.5772 13.8394 13.6763 13.8474 13.7721 13.8713C13.0123 13.9945 12.2437 14.0835 11.4947 14.2536C10.9718 14.3829 10.4626 14.5623 9.97414 14.7895C9.63092 14.941 9.37472 15.209 9.50967 15.6695L9.38744 15.7204Z" fill="white"/>
<path d="M15.1674 19.3824C17.0537 19.8186 18.9526 22.2436 18.4862 24.5562C18.3473 22.2104 17.2619 20.4757 15.1674 19.3824Z" fill="white"/>
<path d="M17.2628 25.9262L16.062 23.993C16.7944 24.3049 17.4242 25.3141 17.2628 25.9262Z" fill="white"/>
<path d="M54.098 17.3533H50.9872C50.9304 16.9509 50.8144 16.5934 50.6392 16.2809C50.464 15.9637 50.2391 15.6938 49.9645 15.4712C49.6899 15.2487 49.3726 15.0782 49.0128 14.9599C48.6577 14.8415 48.2718 14.7823 47.8551 14.7823C47.1023 14.7823 46.4465 14.9693 45.8878 15.3434C45.3291 15.7127 44.8958 16.2525 44.5881 16.9627C44.2803 17.6682 44.1264 18.5252 44.1264 19.5337C44.1264 20.5707 44.2803 21.4419 44.5881 22.1474C44.9006 22.8529 45.3362 23.3855 45.8949 23.7454C46.4536 24.1052 47.0999 24.2852 47.8338 24.2852C48.2457 24.2852 48.6269 24.2307 48.9773 24.1218C49.3324 24.0129 49.6473 23.8543 49.9219 23.6459C50.1965 23.4329 50.4238 23.1748 50.6037 22.8718C50.7884 22.5688 50.9162 22.2231 50.9872 21.8349L54.098 21.8491C54.0175 22.5167 53.8163 23.1606 53.4943 23.7809C53.1771 24.3964 52.7486 24.948 52.2088 25.4357C51.6738 25.9187 51.0346 26.3022 50.2912 26.5863C49.5526 26.8656 48.7169 27.0053 47.7841 27.0053C46.4867 27.0053 45.3267 26.7118 44.304 26.1246C43.286 25.5375 42.4811 24.6876 41.8892 23.5749C41.3021 22.4622 41.0085 21.1152 41.0085 19.5337C41.0085 17.9476 41.3068 16.5981 41.9034 15.4854C42.5 14.3727 43.3097 13.5252 44.3324 12.9428C45.3551 12.3557 46.5057 12.0621 47.7841 12.0621C48.6269 12.0621 49.4081 12.1805 50.1278 12.4173C50.8523 12.654 51.4938 12.9996 52.0526 13.4542C52.6113 13.904 53.0658 14.4556 53.4162 15.109C53.7713 15.7624 53.9986 16.5105 54.098 17.3533ZM61.1754 27.0195C60.0722 27.0195 59.1181 26.7852 58.3132 26.3164C57.513 25.8429 56.8951 25.1848 56.4595 24.342C56.0239 23.4944 55.8061 22.5119 55.8061 21.3945C55.8061 20.2676 56.0239 19.2828 56.4595 18.44C56.8951 17.5924 57.513 16.9343 58.3132 16.4655C59.1181 15.9921 60.0722 15.7553 61.1754 15.7553C62.2786 15.7553 63.2304 15.9921 64.0305 16.4655C64.8355 16.9343 65.4557 17.5924 65.8913 18.44C66.3269 19.2828 66.5447 20.2676 66.5447 21.3945C66.5447 22.5119 66.3269 23.4944 65.8913 24.342C65.4557 25.1848 64.8355 25.8429 64.0305 26.3164C63.2304 26.7852 62.2786 27.0195 61.1754 27.0195ZM61.1896 24.6758C61.6915 24.6758 62.1106 24.5337 62.4467 24.2496C62.7829 23.9608 63.0362 23.5678 63.2067 23.0707C63.3819 22.5735 63.4695 22.0077 63.4695 21.3732C63.4695 20.7387 63.3819 20.1729 63.2067 19.6758C63.0362 19.1786 62.7829 18.7856 62.4467 18.4968C62.1106 18.208 61.6915 18.0636 61.1896 18.0636C60.683 18.0636 60.2569 18.208 59.9112 18.4968C59.5703 18.7856 59.3123 19.1786 59.1371 19.6758C58.9666 20.1729 58.8814 20.7387 58.8814 21.3732C58.8814 22.0077 58.9666 22.5735 59.1371 23.0707C59.3123 23.5678 59.5703 23.9608 59.9112 24.2496C60.2569 24.5337 60.683 24.6758 61.1896 24.6758ZM74.3786 15.8974V18.1701H67.6456V15.8974H74.3786ZM69.1868 26.8065V15.109C69.1868 14.3183 69.3407 13.6625 69.6484 13.1417C69.9609 12.6209 70.3871 12.2302 70.9268 11.9698C71.4666 11.7094 72.0798 11.5792 72.7663 11.5792C73.2304 11.5792 73.6541 11.6147 74.0376 11.6857C74.4259 11.7567 74.7147 11.8207 74.9041 11.8775L74.3643 14.1502C74.246 14.1123 74.0992 14.0768 73.924 14.0437C73.7536 14.0105 73.5784 13.994 73.3984 13.994C72.9534 13.994 72.6432 14.0981 72.468 14.3065C72.2929 14.5101 72.2053 14.7965 72.2053 15.1658V26.8065H69.1868ZM82.0934 15.8974V18.1701H75.3604V15.8974H82.0934ZM76.9016 26.8065V15.109C76.9016 14.3183 77.0555 13.6625 77.3633 13.1417C77.6758 12.6209 78.1019 12.2302 78.6417 11.9698C79.1815 11.7094 79.7946 11.5792 80.4812 11.5792C80.9452 11.5792 81.369 11.6147 81.7525 11.6857C82.1407 11.7567 82.4296 11.8207 82.619 11.8775L82.0792 14.1502C81.9608 14.1123 81.814 14.0768 81.6388 14.0437C81.4684 14.0105 81.2932 13.994 81.1133 13.994C80.6682 13.994 80.3581 14.0981 80.1829 14.3065C80.0077 14.5101 79.9201 14.7965 79.9201 15.1658V26.8065H76.9016ZM88.5227 27.0195C87.4006 27.0195 86.4347 26.7923 85.625 26.3377C84.8201 25.8784 84.1998 25.2298 83.7642 24.3917C83.3286 23.5489 83.1108 22.5522 83.1108 21.4016C83.1108 20.2795 83.3286 19.2946 83.7642 18.4471C84.1998 17.5995 84.813 16.939 85.6037 16.4655C86.3991 15.9921 87.3319 15.7553 88.402 15.7553C89.1217 15.7553 89.7917 15.8713 90.4119 16.1033C91.0369 16.3306 91.5814 16.6739 92.0455 17.1332C92.5142 17.5924 92.8788 18.1701 93.1392 18.8661C93.3996 19.5574 93.5298 20.3671 93.5298 21.2951V22.1261H84.3182V20.2511H90.6818C90.6818 19.8155 90.5871 19.4296 90.3977 19.0934C90.2083 18.7572 89.9455 18.4944 89.6094 18.305C89.2779 18.1109 88.892 18.0138 88.4517 18.0138C87.9924 18.0138 87.5852 18.1204 87.2301 18.3334C86.8797 18.5418 86.6051 18.8235 86.4062 19.1786C86.2074 19.529 86.1056 19.9196 86.1009 20.3505V22.1332C86.1009 22.6729 86.2003 23.1393 86.3991 23.5323C86.6027 23.9253 86.8892 24.2283 87.2585 24.4414C87.6278 24.6545 88.0658 24.761 88.5724 24.761C88.9086 24.761 89.2164 24.7137 89.4957 24.619C89.7751 24.5243 90.0142 24.3822 90.2131 24.1928C90.4119 24.0034 90.5634 23.7714 90.6676 23.4968L93.4659 23.6815C93.3239 24.3538 93.0327 24.9409 92.5923 25.4428C92.1567 25.94 91.5933 26.3282 90.902 26.6076C90.2154 26.8822 89.4223 27.0195 88.5227 27.0195ZM100.476 27.0195C99.3537 27.0195 98.3878 26.7923 97.5781 26.3377C96.7732 25.8784 96.1529 25.2298 95.7173 24.3917C95.2817 23.5489 95.0639 22.5522 95.0639 21.4016C95.0639 20.2795 95.2817 19.2946 95.7173 18.4471C96.1529 17.5995 96.7661 16.939 97.5568 16.4655C98.3523 15.9921 99.285 15.7553 100.355 15.7553C101.075 15.7553 101.745 15.8713 102.365 16.1033C102.99 16.3306 103.535 16.6739 103.999 17.1332C104.467 17.5924 104.832 18.1701 105.092 18.8661C105.353 19.5574 105.483 20.3671 105.483 21.2951V22.1261H96.2713V20.2511H102.635C102.635 19.8155 102.54 19.4296 102.351 19.0934C102.161 18.7572 101.899 18.4944 101.562 18.305C101.231 18.1109 100.845 18.0138 100.405 18.0138C99.9455 18.0138 99.5384 18.1204 99.1832 18.3334C98.8329 18.5418 98.5582 18.8235 98.3594 19.1786C98.1605 19.529 98.0587 19.9196 98.054 20.3505V22.1332C98.054 22.6729 98.1534 23.1393 98.3523 23.5323C98.5559 23.9253 98.8423 24.2283 99.2116 24.4414C99.581 24.6545 100.019 24.761 100.526 24.761C100.862 24.761 101.17 24.7137 101.449 24.619C101.728 24.5243 101.967 24.3822 102.166 24.1928C102.365 24.0034 102.517 23.7714 102.621 23.4968L105.419 23.6815C105.277 24.3538 104.986 24.9409 104.545 25.4428C104.11 25.94 103.546 26.3282 102.855 26.6076C102.169 26.8822 101.375 27.0195 100.476 27.0195ZM112.143 12.261H115.936L119.941 22.0337H120.112L124.118 12.261H127.91V26.8065H124.927V17.3391H124.806L121.042 26.7354H119.011L115.247 17.3036H115.126V26.8065H112.143V12.261ZM135.359 27.0195C134.237 27.0195 133.271 26.7923 132.461 26.3377C131.656 25.8784 131.036 25.2298 130.6 24.3917C130.165 23.5489 129.947 22.5522 129.947 21.4016C129.947 20.2795 130.165 19.2946 130.6 18.4471C131.036 17.5995 131.649 16.939 132.44 16.4655C133.235 15.9921 134.168 15.7553 135.238 15.7553C135.958 15.7553 136.628 15.8713 137.248 16.1033C137.873 16.3306 138.417 16.6739 138.881 17.1332C139.35 17.5924 139.715 18.1701 139.975 18.8661C140.236 19.5574 140.366 20.3671 140.366 21.2951V22.1261H131.154V20.2511H137.518C137.518 19.8155 137.423 19.4296 137.234 19.0934C137.044 18.7572 136.781 18.4944 136.445 18.305C136.114 18.1109 135.728 18.0138 135.288 18.0138C134.828 18.0138 134.421 18.1204 134.066 18.3334C133.716 18.5418 133.441 18.8235 133.242 19.1786C133.043 19.529 132.942 19.9196 132.937 20.3505V22.1332C132.937 22.6729 133.036 23.1393 133.235 23.5323C133.439 23.9253 133.725 24.2283 134.094 24.4414C134.464 24.6545 134.902 24.761 135.408 24.761C135.745 24.761 136.052 24.7137 136.332 24.619C136.611 24.5243 136.85 24.3822 137.049 24.1928C137.248 24.0034 137.399 23.7714 137.504 23.4968L140.302 23.6815C140.16 24.3538 139.869 24.9409 139.428 25.4428C138.993 25.94 138.429 26.3282 137.738 26.6076C137.051 26.8822 136.258 27.0195 135.359 27.0195ZM145.366 20.4996V26.8065H142.34V15.8974H145.224V17.8221H145.352C145.593 17.1876 145.998 16.6857 146.566 16.3164C147.134 15.9423 147.823 15.7553 148.633 15.7553C149.39 15.7553 150.051 15.921 150.614 16.2525C151.178 16.5839 151.616 17.0574 151.928 17.6729C152.241 18.2837 152.397 19.0129 152.397 19.8604V26.8065H149.371V20.4002C149.376 19.7326 149.206 19.2118 148.86 18.8377C148.514 18.4589 148.039 18.2695 147.433 18.2695C147.025 18.2695 146.665 18.3571 146.353 18.5323C146.045 18.7075 145.804 18.9632 145.629 19.2994C145.458 19.6308 145.371 20.0309 145.366 20.4996ZM161.777 22.1616V15.8974H164.803V26.8065H161.898V24.8249H161.784C161.538 25.4641 161.129 25.9779 160.556 26.3661C159.988 26.7544 159.294 26.9485 158.475 26.9485C157.746 26.9485 157.104 26.7828 156.55 26.4513C155.996 26.1199 155.563 25.6488 155.25 25.038C154.943 24.4272 154.786 23.6957 154.782 22.8434V15.8974H157.807V22.3036C157.812 22.9476 157.985 23.4566 158.326 23.8306C158.667 24.2047 159.123 24.3917 159.696 24.3917C160.061 24.3917 160.402 24.3088 160.719 24.1431C161.036 23.9727 161.292 23.7217 161.486 23.3903C161.685 23.0588 161.782 22.6493 161.777 22.1616Z" fill="#9C4400"/>
</svg>
