<svg width="24" height="24" viewBox="0 0 24 24" fill="none" xmlns="http://www.w3.org/2000/svg">
<path d="M5 11L5.50393 16.5432C5.73952 19.1348 5.85732 20.4305 6.71663 21.2153C7.57594 22 8.87705 22 11.4793 22H12.5207C15.1229 22 16.4241 22 17.2834 21.2153C18.1427 20.4305 18.2605 19.1348 18.4961 16.5432L19 11" stroke="#FF6584" stroke-width="2" stroke-linecap="round"/>
<path d="M10 12V16" stroke="#FF6584" stroke-width="2" stroke-linecap="round"/>
<path d="M14 12V16" stroke="#FF6584" stroke-width="2" stroke-linecap="round"/>
<path d="M3 7.00001L5.42404 6.596C9.77799 5.87034 14.222 5.87034 18.576 6.596L21 7.00001" stroke="#FF6584" stroke-width="2" stroke-linecap="round" stroke-linejoin="round"/>
<path d="M16 6C16 3.79086 14.2091 2 12 2C9.79086 2 8 3.79086 8 6" stroke="#FF6584" stroke-width="2" stroke-linecap="round" stroke-linejoin="round"/>
</svg>
