<svg width="9" height="15" viewBox="0 0 9 15" fill="none" xmlns="http://www.w3.org/2000/svg">
<path d="M8.29775 9.832C8.29775 10.3653 8.16442 10.8667 7.89775 11.336C7.64175 11.8053 7.25775 12.2 6.74575 12.52C6.24442 12.84 5.64708 13.032 4.95375 13.096V14.392H3.91375V13.096C2.91108 13 2.10042 12.6853 1.48175 12.152C0.863083 11.6187 0.55375 10.9147 0.55375 10.04H2.50575C2.53775 10.456 2.67108 10.8027 2.90575 11.08C3.14042 11.3467 3.47642 11.5173 3.91375 11.592V8.072C3.19908 7.89067 2.61775 7.70933 2.16975 7.528C1.72175 7.336 1.33775 7.03733 1.01775 6.632C0.708417 6.22667 0.55375 5.672 0.55375 4.968C0.55375 4.08267 0.863083 3.352 1.48175 2.776C2.10042 2.18933 2.91108 1.848 3.91375 1.752V0.455999H4.95375V1.752C5.89242 1.83733 6.64442 2.136 7.20975 2.648C7.78575 3.14933 8.11108 3.84267 8.18575 4.728H6.23375C6.20175 4.39733 6.07375 4.104 5.84975 3.848C5.62575 3.58133 5.32708 3.4 4.95375 3.304V6.76C5.66842 6.93067 6.24975 7.112 6.69775 7.304C7.14575 7.48533 7.52442 7.77867 7.83375 8.184C8.14308 8.57867 8.29775 9.128 8.29775 9.832ZM2.40975 4.872C2.40975 5.30933 2.53775 5.65067 2.79375 5.896C3.06042 6.14133 3.43375 6.33867 3.91375 6.488V3.256C3.45508 3.30933 3.08708 3.47467 2.80975 3.752C2.54308 4.02933 2.40975 4.40267 2.40975 4.872ZM4.95375 11.592C5.42308 11.5173 5.79108 11.3307 6.05775 11.032C6.32442 10.7227 6.45775 10.3547 6.45775 9.928C6.45775 9.50133 6.32442 9.17067 6.05775 8.936C5.80175 8.69067 5.43375 8.49333 4.95375 8.344V11.592Z" fill="#ACA9A9"/>
</svg>
